<svg width="1765" height="2246" viewBox="0 0 1765 2246" fill="none" xmlns="http://www.w3.org/2000/svg">
<path d="M1364.02 2035.95C1238.98 1939.63 1128.77 1895.7 1050.61 1873.42C971.57 1850.9 905.333 1844.87 819.258 1795.56C724.202 1741.31 679.927 1686.33 663.626 1663.25C641.037 1631.25 646.647 1628.63 613.569 1572.03C550.032 1463.3 521.926 1460.21 498.882 1405.55C460.667 1314.93 522.455 1286.75 500.168 1172.59C484.041 1089.9 428.238 984.883 334.731 937.02C246.673 891.952 194.588 933.086 114.176 872.268C81.1453 847.286 61.5311 817.902 22.3204 759.15C-28.0104 683.939 -53.6196 624.465 -64.759 601.614C-97.7312 533.891 -169.401 444.793 -342.629 360.969" stroke="#FFFFAC" stroke-opacity="0.2" stroke-width="0.862486" stroke-miterlimit="10"/>
<path d="M1379.08 2021.01C1259.05 1926.83 1149.49 1878.13 1065.56 1852.38C997.097 1831.76 937.924 1823.66 871.547 1795.88C857.04 1789.79 842.061 1783.05 826.665 1774.98C729.672 1724.09 681.43 1673.85 661.897 1652.21C635.687 1623.21 638.569 1620.05 606.042 1564.7C583.1 1525.71 565.493 1499.33 551.247 1479.56C527.02 1445.97 512.42 1431.86 499.788 1398.25C495.04 1385.75 491.749 1372.74 489.98 1359.48C481.781 1298.17 517.242 1262.32 495.197 1169.87C476.009 1089.4 417.533 988.412 325.433 941.573C318.133 937.866 310.65 934.53 303.013 931.579C225.921 901.821 177.575 929.134 106.819 875.763C99.3537 870.149 92.2716 864.043 85.6198 857.485C63.1986 835.522 44.5308 807.88 15.1561 763.895C-33.4232 690.933 -58.6984 632.447 -70.9654 607.233C-79.9978 588.818 -90.5593 571.192 -102.539 554.543C-143.863 496.788 -215.34 429.459 -342.806 364.223" stroke="#FFFFAC" stroke-opacity="0.2" stroke-width="0.862486" stroke-miterlimit="10"/>
<path d="M1395.4 2004.7C1280.37 1912.7 1171.58 1858.92 1081.65 1830.09C1010.24 1807.18 948.197 1798.84 881.916 1772.8C866.771 1766.88 851.169 1760.64 835.283 1753C736.335 1705.5 682.693 1661.7 661.36 1639.76C633.907 1611.45 631.666 1610.02 599.743 1556C577.414 1518.16 560.64 1491.04 547.492 1470.74C525.298 1436.6 512.695 1422.3 502.009 1389.62C497.984 1377.11 495.227 1364.24 493.781 1351.18C486.592 1291.16 516.855 1254.65 491.501 1165.69C469.235 1087.45 408.088 990.494 317.394 944.679C309.655 940.867 302.378 937.475 295.131 934.762C215.874 903.778 168.967 929.086 100.8 877.689C93.3746 872.141 86.3244 866.107 79.6958 859.627C56.7711 837.432 37.993 809.982 9.4598 766.928C-37.4505 696.27 -62.3076 638.751 -75.882 611.336C-84.8473 593.074 -95.2644 575.561 -107.033 558.966C-147.669 501.384 -217.692 433.139 -341.621 366.058" stroke="#FFFFAC" stroke-opacity="0.2" stroke-width="0.862486" stroke-miterlimit="10"/>
<path d="M1412.77 1987.22C1302.79 1897.33 1194.62 1838.74 1098.85 1806.54C1024.44 1781.54 959.559 1772.82 893.394 1748.58C877.593 1742.81 861.366 1737.03 845.009 1729.87C744.14 1685.73 688.423 1644.92 661.916 1626.18C629.137 1602.99 625.854 1598.86 594.519 1546.16C572.735 1509.46 556.811 1481.59 544.673 1460.69C524.512 1426.03 513.903 1411.46 505.147 1379.73C501.915 1367.28 499.739 1354.58 498.64 1341.76C492.445 1283.03 517.389 1245.81 488.85 1160.47C463.437 1084.4 399.704 991.521 310.401 946.748C302.715 942.984 295.473 939.625 288.31 936.891C206.844 904.8 161.387 927.986 95.6827 878.771C88.2907 873.283 81.2666 867.317 74.6554 860.91C51.2109 838.5 32.284 811.142 4.56449 769.156C-40.6575 700.852 -65.1483 644.286 -79.8827 614.543C-88.8393 596.442 -99.1338 579.033 -110.68 562.463C-150.629 505.054 -219.181 435.875 -339.572 366.983" stroke="#FFFFAC" stroke-opacity="0.2" stroke-width="0.862486" stroke-miterlimit="10"/>
<path d="M1430.17 1969.71C1325.21 1881.96 1217.72 1818.57 1116.09 1782.99C1038.64 1755.9 970.921 1746.83 904.869 1724.33C888.429 1718.72 871.579 1713.45 854.731 1706.72C751.99 1665.87 692.767 1629.83 662.501 1612.54C626.737 1592.12 620.143 1587.69 589.323 1536.24C568.063 1500.58 553.046 1472.11 541.904 1450.68C523.761 1415.52 515.196 1400.68 508.337 1369.9C505.901 1357.52 504.297 1345 503.534 1332.41C498.284 1275 517.923 1237.03 486.28 1155.2C457.702 1081.31 391.418 992.511 303.504 948.745C295.889 945.046 288.682 941.72 281.57 938.967C197.893 905.735 154.084 926.653 90.7268 879.711C83.3899 874.257 76.3934 868.359 69.7766 862.05C45.864 839.441 26.8785 812.29 -0.169235 771.242C-43.7061 705.224 -67.7965 649.609 -83.7396 617.592C-92.645 599.634 -102.807 582.327 -114.15 565.801C-153.412 508.53 -220.526 438.452 -337.364 367.699" stroke="#FFFFAC" stroke-opacity="0.2" stroke-width="0.862486" stroke-miterlimit="10"/>
<path d="M1441.64 1958.65C1341.69 1873.03 1234.88 1804.8 1127.4 1765.87C1046.91 1736.72 976.292 1727.34 910.417 1706.49C893.34 1701.08 875.897 1696.22 858.528 1689.99C753.949 1652.47 691.249 1621.06 657.181 1605.4C618.527 1587.61 608.386 1582.94 578.223 1532.84C561.588 1505.15 546.596 1476.5 533.326 1447.04C517.13 1411.35 510.678 1396.22 505.687 1366.53C503.531 1353.54 503.31 1341.6 502.431 1329.38C498.059 1273.36 512.49 1234.5 477.715 1156.32C445.903 1084.58 377.119 999.876 290.612 957.135C283.05 953.484 275.879 950.19 268.835 947.434C182.977 912.993 140.541 931.944 79.7581 887.027C72.4725 881.624 65.514 875.793 58.9191 869.565C34.5352 846.689 15.4071 819.764 -10.8933 779.822C-52.7758 716.16 -76.4512 661.443 -93.5851 627.169C-102.455 609.348 -112.502 592.137 -123.66 575.651C-162.218 518.535 -227.844 447.54 -341.16 374.96" stroke="#FFFFAC" stroke-opacity="0.2" stroke-width="0.862486" stroke-miterlimit="10"/>
<path d="M1450.1 1951.02C1355.14 1867.59 1249 1794.53 1135.68 1752.19C1052.16 1721 978.642 1711.37 913.023 1692.03C895.275 1686.82 877.257 1682.4 859.382 1676.62C752.926 1642.3 686.745 1615.48 648.861 1601.52C607.453 1586.32 593.701 1581.5 564.107 1532.7C547.526 1505.35 533.307 1476.64 521.606 1446.88C507.397 1410.76 503.018 1395.25 499.99 1366.47C498.61 1353.73 499.111 1341.96 498.349 1329.72C494.969 1274.93 503.866 1235.51 466.173 1160.81C431.059 1091.23 359.826 1010.59 274.709 968.893C267.218 965.307 260.1 962.062 253.088 959.27C165.099 923.566 124.03 940.449 65.9252 897.586C58.6719 892.245 51.7393 886.481 45.1633 880.325C20.3114 857.248 1.03754 830.484 -24.4199 791.506C-64.5994 730.146 -87.8907 676.398 -106.219 639.798C-115.055 622.132 -124.975 605.028 -135.923 588.587C-173.794 531.61 -237.95 459.68 -347.762 385.292" stroke="#FFFFAC" stroke-opacity="0.2" stroke-width="0.862486" stroke-miterlimit="10"/>
<path d="M1458.61 1943.22C1368.72 1861.91 1263.21 1784.13 1144.02 1738.35C1057.47 1705.13 981.033 1695.32 915.572 1677.58C897.121 1672.61 878.494 1668.61 860.162 1663.26C751.896 1632.13 682.265 1609.81 640.505 1597.7C596.211 1584.84 578.977 1580.1 549.97 1532.62C533.49 1505.49 520.101 1476.6 510.057 1446.49C497.837 1410.01 495.579 1394.03 494.382 1366.27C493.849 1353.81 494.987 1342.24 494.41 1329.94C491.889 1276.48 495.329 1236.31 454.721 1165.16C416.255 1097.75 342.641 1021.22 259 980.577C251.563 977.04 244.481 973.826 237.52 971.05C147.286 934.207 107.758 949.081 52.0267 908.321C44.8259 903.028 37.9262 897.337 31.3596 891.276C5.92315 868.056 -13.38 841.395 -38.0268 803.417C-76.5697 744.397 -99.4106 691.58 -118.981 652.708C-127.764 635.172 -137.553 618.157 -148.299 601.751C-185.532 545 -248.217 472.136 -354.442 395.884" stroke="#FFFFAC" stroke-opacity="0.2" stroke-width="0.862486" stroke-miterlimit="10"/>
<path d="M1467.18 1935.4C1382.3 1856.22 1277.43 1773.67 1152.42 1724.49C1062.82 1689.23 983.446 1679.25 918.223 1662.99C899.153 1658.24 879.946 1654.59 861.045 1649.82C750.953 1621.88 677.836 1604.01 632.217 1593.78C585.089 1583.28 564.324 1578.63 535.886 1532.44C519.507 1505.55 506.899 1476.53 498.415 1446.21C488.06 1409.21 488.082 1392.91 488.717 1366.17C489.028 1353.97 490.736 1342.58 490.361 1330.24C488.716 1278.11 486.685 1237.26 443.21 1169.61C401.308 1104.4 325.397 1031.92 243.094 992.267C235.71 988.779 228.663 985.598 221.786 982.8C129.403 944.678 91.2989 957.601 38.0593 918.92C30.9041 913.671 24.0312 908.049 17.4694 902.075C-8.48531 878.675 -27.9388 852.072 -51.772 815.162C-88.6104 758.478 -111.053 706.578 -131.832 665.432C-140.548 648.022 -150.189 631.09 -160.714 614.71C-197.212 558.045 -258.491 484.318 -361.179 406.222" stroke="#FFFFAC" stroke-opacity="0.2" stroke-width="0.862486" stroke-miterlimit="10"/>
<path d="M1475.72 1927.62C1395.8 1850.63 1291.53 1763.29 1160.7 1710.68C1067.96 1673.34 985.745 1663.3 920.756 1648.46C901.001 1643.96 881.233 1640.68 861.843 1636.37C749.99 1611.57 673.385 1598.12 623.844 1589.88C573.893 1581.58 549.585 1577.14 521.734 1532.27C505.489 1505.54 493.698 1476.35 486.821 1445.83C478.351 1408.45 480.647 1391.68 483.098 1365.98C484.253 1354.03 486.568 1342.91 486.305 1330.41C485.485 1279.58 477.851 1238.14 431.641 1173.91C386.271 1110.94 308.113 1042.48 227.198 1003.84C219.885 1000.41 212.873 997.266 206.128 994.36C111.597 954.993 74.8994 965.948 24.2195 929.343C17.0684 924.167 10.2085 918.599 3.67124 912.667C-22.6722 888.944 -42.2798 862.688 -65.4721 826.786C-100.624 772.422 -122.649 721.456 -144.655 678.019C-152.595 662.316 -161.897 645.467 -173.233 627.64C-209.042 571.148 -268.851 496.487 -368 416.58" stroke="#FFFFAC" stroke-opacity="0.2" stroke-width="0.862486" stroke-miterlimit="10"/>
<path d="M1484.03 1920.08C1409.22 1845.29 1305.59 1753.16 1168.92 1697.08C1073.2 1657.8 987.974 1647.61 923.218 1634.15C902.795 1629.91 882.464 1626.96 862.553 1623.16C748.868 1601.43 668.757 1592.36 615.434 1586.19C562.562 1580.2 534.825 1575.89 507.543 1532.32C491.413 1505.72 480.4 1476.35 475.07 1445.7C468.468 1407.87 473.196 1390.76 477.323 1366.04C479.323 1354.34 482.226 1343.43 482.217 1330.93C482.19 1281.44 469.067 1239.32 420.077 1178.6C371.086 1117.88 290.798 1053.43 211.29 1015.81C204.03 1012.44 197.054 1009.32 190.344 1006.45C93.6478 965.82 58.3564 974.807 10.149 940.231C3.05272 935.127 -3.75801 929.637 -10.2526 923.786C-37.1675 899.835 -56.8176 873.768 -79.0959 838.895C-112.595 786.853 -134.17 736.818 -157.418 691.109C-165.338 675.49 -174.549 658.756 -185.627 641.002C-220.748 584.682 -279.103 509.105 -374.699 427.337" stroke="#FFFFAC" stroke-opacity="0.2" stroke-width="0.862486" stroke-miterlimit="10"/>
<path d="M1492.22 1912.64C1422.41 1839.89 1319.45 1743.14 1176.95 1683.57C1078.17 1642.17 990.018 1632.08 925.56 1619.94C904.435 1615.97 883.558 1613.33 863.09 1610C747.592 1591.39 664.005 1586.63 606.822 1582.66C551.136 1578.72 519.758 1574.72 493.204 1532.57C475.574 1504.57 466.439 1471.62 463.189 1445.79C458.403 1407.53 465.436 1389.89 471.399 1366.29C474.279 1354.87 477.752 1344.16 477.962 1331.6C478.676 1283.48 460.037 1240.8 408.311 1183.47C355.774 1125.14 273.299 1064.55 195.198 1027.96C188.009 1024.64 181.068 1021.56 174.376 1018.7C75.5157 976.848 41.6484 983.882 -3.98154 951.4C-11.0403 946.35 -17.8248 940.927 -24.3061 935.155C-51.7199 911.074 -71.4672 885.113 -93.0576 851.161C-124.87 801.439 -145.975 752.385 -170.449 704.386C-178.365 688.869 -187.454 672.215 -198.287 654.586C-232.722 598.404 -289.623 521.911 -381.712 438.368" stroke="#FFFFAC" stroke-opacity="0.2" stroke-width="0.862486" stroke-miterlimit="10"/>
<path d="M1500.34 1905.31C1435.55 1834.69 1333.08 1733.51 1184.9 1670.2C1082.99 1627.13 991.969 1616.69 927.725 1605.88C905.917 1602.23 884.456 1599.84 863.538 1597.07C746.254 1581.42 659.044 1581.09 598.129 1579.18C539.547 1577.34 504.821 1573.74 478.678 1532.77C461.59 1505.85 453.21 1472.29 451.138 1445.84C448.169 1407.17 457.686 1389.19 465.324 1366.54C469.03 1355.35 473.076 1344.9 473.487 1332.26C475.024 1285.41 450.703 1242.27 396.404 1188.18C340.184 1132.21 255.658 1075.5 178.948 1039.95C171.817 1036.67 164.918 1033.62 158.25 1030.81C57.239 987.643 24.7633 992.761 -18.3247 962.338C-25.3478 957.359 -32.1005 952.009 -38.5543 946.311C-66.4702 922.031 -86.3308 896.194 -107.161 863.261C-137.285 815.894 -157.928 767.652 -183.711 717.418C-191.589 701.966 -200.587 685.461 -211.196 667.907C-244.927 611.88 -300.373 534.471 -388.893 449.048" stroke="#FFFFAC" stroke-opacity="0.2" stroke-width="0.862486" stroke-miterlimit="10"/>
<path d="M1508.35 1898.11C1448.56 1829.66 1346.73 1723.69 1192.73 1656.96C1087.77 1611.85 993.743 1601.46 929.828 1591.89C907.37 1588.53 885.346 1586.47 863.889 1584.19C744.803 1571.54 653.946 1575.49 589.327 1575.85C527.797 1576.11 489.587 1572.9 464.118 1533.3C447.539 1507.46 439.911 1473.25 439.086 1446.19C437.898 1407.06 449.931 1388.71 459.282 1367.07C463.937 1356.19 468.448 1345.87 469.078 1333.21C471.232 1287.57 442.881 1242.18 384.377 1193.16C322.868 1141.63 237.897 1086.73 162.576 1052.19C155.504 1048.96 148.646 1045.95 142.002 1043.16C38.9195 998.558 7.75782 1001.92 -32.7883 973.554C-39.7698 968.624 -46.491 963.335 -52.9247 957.709C-81.3264 933.213 -101.386 907.488 -121.399 875.691C-149.684 830.619 -169.885 783.14 -196.974 730.738C-204.831 715.37 -213.722 698.962 -224.071 681.515C-257.116 625.627 -311.108 547.302 -396.073 460.051" stroke="#FFFFAC" stroke-opacity="0.2" stroke-width="0.862486" stroke-miterlimit="10"/>
<path d="M1516.34 1891.07C1461.53 1824.78 1360.38 1714.01 1200.55 1643.87C1092.54 1596.72 995.627 1586.46 931.871 1578.15C908.678 1575.06 886.139 1573.28 864.132 1571.6C743.161 1561.98 648.878 1570.22 580.415 1572.76C515.898 1575 474.266 1572.05 449.332 1533.75C433.279 1509.01 426.387 1474.17 426.791 1446.47C427.352 1406.92 441.955 1388.25 452.895 1367.54C458.465 1356.95 463.46 1346.81 464.324 1334.07C467.307 1289.84 431.848 1245.89 372.268 1198.27C308.732 1147.39 220.073 1098.1 146.158 1064.58C139.217 1061.5 132.276 1058.41 125.708 1055.67C20.4617 1009.84 -9.32757 1011.23 -47.3156 984.908C-54.2622 980.049 -60.9517 974.833 -67.357 969.28C-96.2608 944.586 -116.345 919.065 -135.636 888.188C-162.404 845.444 -182.198 799.051 -210.415 744.287C-218.269 728.987 -227.152 712.748 -237.214 695.271C-269.652 639.645 -322.126 560.298 -403.466 471.284" stroke="#FFFFAC" stroke-opacity="0.2" stroke-width="0.862486" stroke-miterlimit="10"/>
<path d="M1524.09 1883.96C1474.35 1819.79 1373.83 1704.3 1208.14 1630.71C1097.01 1581.45 997.19 1571.47 933.777 1564.34C909.955 1561.65 886.795 1560.02 864.334 1558.84C741.598 1551.9 643.601 1564.81 571.537 1569.66C504.025 1574.08 459.113 1571.52 434.656 1534.36C419.129 1510.73 412.938 1475.22 414.573 1446.93C416.963 1406.84 434.073 1387.98 446.635 1368.17C453.187 1357.89 458.615 1347.92 459.716 1335.13C463.404 1292.19 422.22 1247.97 360.181 1203.46C292.986 1155.13 202.234 1109.52 129.727 1077.06C122.787 1073.97 115.97 1071 109.532 1068.12C2.1033 1021.04 -26.309 1020.57 -61.7728 996.294C-68.7036 991.428 -75.3764 986.205 -81.7641 980.646C-108.681 957.872 -131.679 930.836 -149.842 900.616C-174.923 860.193 -194.301 814.733 -223.744 757.678C-231.594 742.48 -240.304 726.302 -250.119 709.018C-296.318 628.558 -350.08 552.684 -410.675 482.425" stroke="#FFFFAC" stroke-opacity="0.2" stroke-width="0.862486" stroke-miterlimit="10"/>
<path d="M1531.88 1877C1487.15 1814.96 1387.28 1694.7 1215.76 1617.7C1101.65 1566.47 998.887 1556.53 935.595 1550.56C654.565 1524.16 473.9 1616.27 419.772 1534.96C404.771 1512.42 399.281 1476.26 402.181 1447.36C408.346 1385.67 451.009 1373.56 454.915 1336.15C464.506 1244.43 226.705 1139.57 93.0653 1080.63C-37.2425 1023.18 -50.793 1030.61 -96.2609 992.359C-175.667 925.629 -187.393 858.57 -263.243 722.861C-308.437 642.275 -360.265 565.595 -418.191 493.615" stroke="#FFFFAC" stroke-opacity="0.2" stroke-width="0.862486" stroke-miterlimit="10"/>
<path d="M1536.51 1871.92C1491.29 1807.46 1393.71 1691.82 1229.69 1618.25C1116.4 1567.55 1015.83 1560.42 948.457 1553.39C679.466 1525.17 512.121 1607.78 451.256 1531.21C427.47 1501.31 407.355 1466.52 401.209 1435.74C389.154 1375.24 424.832 1363.55 423.252 1322.53C419.822 1232.71 201.676 1130.9 75.5233 1073.6C-47.463 1017.88 -59.261 1023.11 -103.992 979.025C-178.323 905.774 -191.461 843.897 -262.325 715.406C-306.548 635.252 -358.218 559.44 -416.652 488.972" stroke="#FFFFAC" stroke-opacity="0.2" stroke-width="0.862486" stroke-miterlimit="10"/>
<path d="M1541.34 1866.64C1466.57 1758.44 1363.7 1672.68 1243.8 1618.61C1131.35 1568.41 1033.03 1564.22 961.497 1556.03C704.482 1526.48 547.822 1600.7 482.901 1527.26C449.973 1489.98 416.538 1457.64 400.432 1423.91C372.74 1366.11 399.264 1354.23 391.783 1308.7C377.452 1221.77 176.826 1122.04 58.1417 1066.35C-57.3635 1012.52 -67.5885 1015.7 -111.562 965.481C-180.963 886.259 -195.19 828.851 -261.212 707.74C-304.46 628.049 -355.953 553.119 -414.847 484.18" stroke="#FFFFAC" stroke-opacity="0.2" stroke-width="0.862486" stroke-miterlimit="10"/>
<path d="M1549.92 1857.24C1478.14 1751.29 1378.34 1667.37 1261.65 1614.84C1150.04 1565.18 1053.96 1563.92 978.293 1554.55C733.363 1524.19 597.986 1576.74 518.318 1519.2C468.482 1483.2 430.532 1444.66 403.377 1407.97C362.329 1352.55 377.981 1341.24 364.036 1290.76C340.95 1207.18 155.857 1108.85 44.5334 1055C-63.4707 1002.75 -72.2354 1004.41 -115.375 947.856C-180.102 863.015 -195.177 809.743 -256.378 695.96C-298.633 616.699 -349.966 542.624 -409.34 475.226" stroke="#FFFFAC" stroke-opacity="0.2" stroke-width="0.862486" stroke-miterlimit="10"/>
<path d="M1562.98 1842.92C1494.2 1739.25 1397.45 1657.18 1283.95 1606.22C1173.15 1557.11 1079.33 1558.78 999.526 1548.21C766.609 1517.34 640.1 1561.17 558.156 1506.27C497.288 1465.47 438.797 1434.64 410.776 1387.18C372.219 1321.87 371.251 1318.9 340.744 1267.97C325.199 1183.5 139.295 1090.87 35.3445 1038.78C-65.2186 988.276 -72.5568 988.406 -114.752 925.337C-175.027 835.227 -190.645 785.719 -247.088 679.335C-288.362 600.51 -339.545 527.286 -399.394 461.445" stroke="#FFFFAC" stroke-opacity="0.2" stroke-width="0.862486" stroke-miterlimit="10"/>
<path d="M1576.36 1828.27C1510.59 1726.86 1416.94 1646.59 1306.66 1597.1C1196.69 1548.49 1105.11 1553.17 1021.16 1541.36C800.238 1510.28 681.904 1546.22 598.52 1492.93C526.657 1446.98 459.491 1416.82 418.596 1365.86C365.859 1300.16 356.981 1298.95 317.871 1244.65C295.989 1162.14 123.06 1072.57 26.6831 1022.15C-66.4389 973.405 -72.5304 972.169 -113.602 902.418C-169.758 807.19 -185.553 761.261 -237.289 662.296C-277.58 583.902 -328.623 511.521 -388.938 447.248" stroke="#FFFFAC" stroke-opacity="0.2" stroke-width="0.862486" stroke-miterlimit="10"/>
<path d="M1589.99 1813.34C1527.2 1714.25 1436.65 1635.83 1329.61 1587.84C1220.47 1539.76 1131.14 1547.48 1043.04 1534.38C834.035 1503.29 723.487 1531.77 638.898 1479.26C556.426 1428.08 489.589 1386.84 426.642 1344.43C348.911 1292.08 342.922 1278.9 295.226 1221.22C267.015 1140.48 107.063 1054.01 18.035 1005.19C-67.6461 958.196 -72.5878 955.701 -112.439 879.162C-164.494 779.157 -180.348 736.427 -227.372 644.982C-266.693 567.026 -317.602 495.478 -378.365 432.778" stroke="#FFFFAC" stroke-opacity="0.2" stroke-width="0.862486" stroke-miterlimit="10"/>
<path d="M1603.81 1798.21C1555.21 1718.82 1471.91 1630.98 1352.7 1578.32C1244.5 1530.53 1157.31 1541.58 1065.09 1527.15C867.993 1496.3 764.935 1517.53 679.566 1465.46C586.503 1408.67 509.924 1366.31 434.837 1322.74C344.892 1270.58 318.161 1267.09 272.729 1197.52C225.652 1125.44 91.3159 1035.17 9.67718 988.094C-68.5791 942.868 -72.4553 939.135 -111.002 855.787C-159.351 750.938 -174.837 711.404 -217.358 627.387C-243.793 575.16 -286.48 499.447 -367.694 418.026" stroke="#FFFFAC" stroke-opacity="0.2" stroke-width="0.862486" stroke-miterlimit="10"/>
<path d="M1617.86 1782.81C1568.67 1700.97 1487.77 1617.78 1376.05 1568.57C1268.68 1521.29 1183.69 1535.51 1087.36 1519.67C902.166 1489.25 806.614 1503.58 720.441 1451.39C616.979 1388.75 530.422 1345.28 443.275 1300.81C340.969 1248.63 304.943 1247.09 250.474 1173.6C198.608 1103.49 75.6815 1016.25 1.52614 970.733C-69.3408 927.245 -72.4845 922.424 -109.341 832.131C-154.097 722.563 -169.002 686.096 -207.031 609.627C-232.783 557.827 -274.565 482.94 -356.694 403.091" stroke="#FFFFAC" stroke-opacity="0.2" stroke-width="0.862486" stroke-miterlimit="10"/>
<path d="M1632.08 1767.23C1582.33 1682.8 1503.79 1604.4 1399.56 1558.62C1293.03 1511.85 1210.27 1529.3 1109.81 1512C936.475 1482.16 848.31 1489.61 761.513 1437.14C647.741 1368.37 551.058 1323.92 451.891 1278.69C337.098 1226.33 292.258 1226.47 228.399 1149.47C171.735 1081.16 60.3067 997.04 -6.42845 953.193C-69.832 911.575 -72.3512 905.536 -107.484 808.296C-148.818 693.982 -162.922 660.556 -196.525 591.671C-221.597 540.265 -262.374 466.166 -345.532 387.979" stroke="#FFFFAC" stroke-opacity="0.2" stroke-width="0.862486" stroke-miterlimit="10"/>
<path d="M1646.51 1751.43C1596.21 1664.64 1519.98 1590.79 1423.27 1548.47C1317.57 1502.21 1237.01 1522.99 1132.45 1504.12C970.965 1475.01 883.492 1485.34 802.758 1422.66C688.293 1333.82 571.848 1302.28 460.698 1256.36C333.365 1203.73 260.119 1219.6 206.514 1125.14C161.792 1046.17 45.0971 977.792 -14.2094 935.426C-70.1366 895.592 -72.1446 888.458 -105.47 784.251C-143.5 665.213 -156.55 634.765 -185.828 573.504C-210.184 522.49 -250.041 449.199 -334.162 372.637" stroke="#FFFFAC" stroke-opacity="0.2" stroke-width="0.862486" stroke-miterlimit="10"/>
<path d="M1661.4 1735.11C1610.55 1645.83 1536.63 1576.73 1447.53 1537.67C1342.67 1491.96 1264.29 1516.15 1155.66 1495.62C1005.9 1467.3 926.935 1469.49 844.587 1407.58C719.201 1313.39 593.15 1279.94 470.054 1233.4C330.108 1180.44 251.675 1197 185.178 1100.17C132.445 1023.35 30.4425 957.686 -21.4069 917.055C-69.9239 879.042 -71.5789 870.702 -102.856 759.585C-137.72 635.796 -149.564 608.302 -174.583 554.7C-198.19 504.078 -237.158 431.629 -322.26 356.676" stroke="#FFFFAC" stroke-opacity="0.2" stroke-width="0.862486" stroke-miterlimit="10"/>
<path d="M1677.24 1717.76C1625.85 1626.01 1554.3 1561.57 1472.57 1526.06C1368.53 1480.87 1292.32 1508.6 1179.63 1486.28C1041.75 1458.99 971.158 1452.82 887.161 1391.65C750.658 1292.25 615.195 1256.72 480.206 1209.59C327.511 1156.28 244.441 1172.19 164.638 1074.37C103.958 999.982 16.5585 936.915 -27.8592 897.832C-68.9467 861.691 -70.3181 852.114 -99.497 734.067C-131.262 605.529 -141.785 580.899 -162.54 535.06C-185.351 484.775 -223.585 413.126 -309.561 339.879" stroke="#FFFFAC" stroke-opacity="0.2" stroke-width="0.862486" stroke-miterlimit="10"/>
<path d="M1693.35 1700.11C1641.4 1605.87 1572.19 1546.14 1497.99 1514.04C1394.75 1469.39 1320.66 1500.82 1203.97 1476.53C1077.84 1450.3 1015.78 1435.82 930.126 1375.33C782.399 1270.98 637.562 1233.07 490.717 1185.4C325.182 1131.62 237.837 1145.87 144.457 1048.17C75.9259 976.472 2.9827 915.773 -33.9192 878.217C-67.5919 843.999 -68.8007 833.14 -95.7456 708.157C-124.535 574.792 -133.326 553.109 -150.124 515.011C-172.053 465.043 -209.426 394.375 -296.488 322.673" stroke="#FFFFAC" stroke-opacity="0.2" stroke-width="0.862486" stroke-miterlimit="10"/>
<path d="M1710.89 1680.9C1658.37 1584.18 1591.47 1529.29 1524.81 1500.47C1422.29 1456.57 1350.38 1491.71 1229.73 1465.24C1115.33 1440.16 1061.81 1417.32 974.484 1357.45C815.441 1248.39 661.321 1207.83 502.708 1159.72C324.475 1105.6 239.232 1109.25 125.756 1020.49C44.91 957.229 -9.09497 893.167 -38.5166 857.107C-64.8601 824.799 -65.8739 812.622 -90.5478 680.769C-116.362 542.542 -123.503 523.861 -136.259 493.519C-157.14 443.792 -193.926 374.084 -281.951 304.006" stroke="#FFFFAC" stroke-opacity="0.2" stroke-width="0.862486" stroke-miterlimit="10"/>
<path d="M1728.24 1661.89C1675.19 1562.69 1610.63 1512.47 1551.45 1487.07C1449.77 1443.71 1379.85 1483.07 1255.31 1454.13C1152.62 1430.27 1107.69 1399.05 1018.69 1339.76C848.207 1226.18 684.879 1182.77 514.39 1134.06C323.267 1079.5 230.452 1082.99 106.746 992.833C20.8614 930.173 -21.6306 870.669 -43.4038 836.063C-62.4521 805.667 -63.3565 792.159 -85.6236 653.43C-108.601 510.314 -113.822 494.588 -122.687 472.025C-142.186 422.422 -178.733 353.842 -267.739 285.373" stroke="#FFFFAC" stroke-opacity="0.2" stroke-width="0.862486" stroke-miterlimit="10"/>
<path d="M1745.62 1642.85C1692.05 1541.23 1629.7 1495.54 1578.11 1473.68C1477.32 1430.91 1409.2 1474.83 1280.91 1443.02C1189.84 1420.45 1153.59 1380.79 1062.89 1322.05C880.886 1204.2 708.358 1157.76 526.148 1108.5C322.152 1053.47 221.557 1056.76 87.812 965.27C-3.36437 902.884 -34.2261 848.274 -48.2345 815.065C-60.1849 786.726 -60.7634 771.792 -80.6429 626.137C-100.784 478.097 -103.949 465.355 -109.04 450.627C-126.236 400.817 -163.432 333.66 -253.418 266.801" stroke="#FFFFAC" stroke-opacity="0.2" stroke-width="0.862486" stroke-miterlimit="10"/>
</svg>
