<svg width="1134" height="1170" viewBox="0 0 1134 1170" fill="none" xmlns="http://www.w3.org/2000/svg">
<g clip-path="url(#clip0_2157_546)">
<path fill-rule="evenodd" clip-rule="evenodd" d="M329.496 150.922C458.998 96.4755 613.064 8.47879 738.742 70.0241C868.905 133.766 838.782 317.313 910.767 435.574C966.948 527.873 1103.22 579.433 1112.95 684.801C1122.68 790.112 984.2 858.363 959.354 961.559C921.435 1119.05 1079.56 1347.09 932.33 1434.99C788.546 1520.83 637.626 1277.92 467.978 1254.92C326.634 1235.75 161.453 1401.57 53.3001 1315.81C-59.6014 1226.29 77.1636 1045.42 37.2792 913.41C4.61504 805.298 -154.898 745.828 -152.805 633.647C-150.715 521.629 -34.8771 443.146 47.5929 360.604C131.038 277.085 217.279 198.101 329.496 150.922Z" stroke="#FFFFAC" stroke-opacity="0.3" stroke-width="1.58493"/>
<path opacity="0.95875" fill-rule="evenodd" clip-rule="evenodd" d="M332.853 169.953C464.345 119.691 621.66 36.6863 744.924 102.223C872.585 170.098 835.507 352.568 902.954 473.065C955.595 567.109 1089.82 623.006 1095.55 728.621C1101.27 834.18 960.279 897.951 931.527 1000.29C887.648 1156.46 1037.01 1389.44 886.533 1472.56C739.574 1553.74 597.976 1306.14 429.305 1277.71C288.775 1254.03 117.395 1414.45 12.5661 1325.28C-96.8654 1232.2 46.6885 1055.82 11.844 922.609C-16.6926 813.516 -173.849 748.968 -167.495 636.922C-161.15 525.039 -42.4009 450.318 43.155 370.47C129.723 289.676 218.912 213.506 332.853 169.953Z" stroke="#FFFFAC" stroke-opacity="0.3" stroke-width="1.58493"/>
<path opacity="0.9175" fill-rule="evenodd" clip-rule="evenodd" d="M335.491 189.079C468.812 143.063 629.186 65.1524 749.884 134.601C874.889 206.527 830.9 387.697 893.729 510.283C942.764 605.957 1074.79 666.123 1076.5 771.857C1078.2 877.535 934.876 936.747 902.253 1038.1C852.467 1192.77 992.889 1430.39 839.342 1508.64C689.389 1585.06 557.284 1333.07 389.795 1299.26C250.251 1271.09 72.8803 1425.91 -28.4967 1333.44C-134.325 1236.9 15.843 1065.23 -13.9191 930.987C-38.2934 821.045 -192.901 751.499 -182.294 639.725C-171.702 528.114 -50.1866 457.245 38.351 380.187C127.936 302.219 219.965 228.953 335.491 189.079Z" stroke="#FFFFAC" stroke-opacity="0.3" stroke-width="1.58493"/>
<path opacity="0.87625" fill-rule="evenodd" clip-rule="evenodd" d="M337.4 208.279C472.389 166.565 635.625 93.8425 753.611 167.118C875.808 243.007 824.962 422.657 883.094 547.182C928.465 644.37 1058.12 708.731 1055.81 814.456C1053.5 920.124 908.013 974.706 871.559 1074.95C815.927 1227.93 947.236 1469.91 790.809 1543.19C638.043 1614.76 515.593 1358.68 349.492 1319.52C211.103 1286.89 27.9574 1435.94 -69.8443 1340.27C-171.94 1240.4 -15.3413 1073.65 -39.9848 938.534C-60.167 827.877 -212.038 753.418 -197.191 642.052C-182.365 530.848 -58.2306 463.917 33.1808 389.745C125.673 314.696 220.43 244.425 337.4 208.279Z" stroke="#FFFFAC" stroke-opacity="0.3" stroke-width="1.58493"/>
<path opacity="0.835" fill-rule="evenodd" clip-rule="evenodd" d="M338.579 227.528C475.071 190.166 640.971 122.721 756.101 199.734C875.339 279.495 817.699 457.405 871.065 583.718C912.715 682.301 1039.85 750.779 1033.52 856.366C1027.2 961.895 879.725 1011.78 839.484 1110.79C778.073 1261.9 900.108 1507.94 740.992 1576.16C585.601 1642.79 472.955 1382.94 308.442 1338.48C171.378 1301.44 -17.3193 1444.52 -111.427 1345.78C-209.666 1242.69 -46.8265 1081.06 -66.3213 945.24C-82.287 834.004 -231.237 754.722 -212.167 643.899C-193.125 533.239 -66.5234 470.328 27.6505 399.132C122.938 327.093 220.307 259.903 338.579 227.528Z" stroke="#FFFFAC" stroke-opacity="0.3" stroke-width="1.58493"/>
<path opacity="0.79375" fill-rule="evenodd" clip-rule="evenodd" d="M339.026 246.803C476.854 213.84 645.216 151.754 757.349 232.411C873.485 315.945 809.12 491.899 857.654 619.846C895.534 719.704 1019.99 792.216 1009.65 897.536C999.325 1002.8 850.045 1047.92 806.067 1145.59C738.952 1294.64 851.565 1544.44 689.954 1607.52C532.126 1669.12 429.421 1405.82 266.698 1356.11C131.124 1314.7 -62.8944 1451.65 -153.192 1349.94C-247.455 1243.78 -78.5743 1087.46 -92.8966 951.098C-104.626 839.419 -250.473 755.409 -227.204 645.266C-203.969 535.283 -75.0546 476.469 21.767 408.335C119.734 339.395 219.596 275.367 339.026 246.803Z" stroke="#FFFFAC" stroke-opacity="0.3" stroke-width="1.58493"/>
<path opacity="0.7525" fill-rule="evenodd" clip-rule="evenodd" d="M338.741 266.081C477.737 237.556 648.355 180.905 757.356 265.107C870.247 352.314 799.236 526.098 842.879 655.522C876.941 756.533 998.564 832.991 984.235 937.915C969.913 1042.78 819.01 1083.1 771.348 1179.29C698.611 1326.1 801.664 1579.35 637.755 1637.21C477.682 1693.72 385.044 1427.29 224.309 1372.4C90.3911 1326.66 -108.712 1457.31 -195.091 1352.77C-285.263 1243.65 -110.546 1092.84 -119.678 956.101C-127.158 844.113 -269.724 755.48 -242.284 646.149C-214.885 536.978 -83.8139 482.333 15.5374 417.344C116.064 351.586 218.298 290.799 338.741 266.081Z" stroke="#FFFFAC" stroke-opacity="0.3" stroke-width="1.58493"/>
<path opacity="0.71125" fill-rule="evenodd" clip-rule="evenodd" d="M337.723 285.338C477.719 261.286 650.384 210.139 756.12 297.784C865.629 388.557 788.058 559.958 826.758 690.703C856.961 792.744 975.605 873.055 957.298 977.455C939.001 1081.8 786.657 1117.25 735.37 1211.86C657.099 1356.24 750.468 1612.65 584.46 1665.22C422.338 1716.56 339.878 1447.33 181.327 1387.31C49.2285 1337.31 -154.718 1461.5 -237.072 1354.25C-323.042 1242.3 -142.702 1097.19 -146.634 960.242C-149.854 848.083 -288.965 754.933 -257.388 646.549C-225.858 538.323 -92.7907 487.912 8.96924 426.148C111.933 363.653 216.414 306.179 337.723 285.338Z" stroke="#FFFFAC" stroke-opacity="0.3" stroke-width="1.58493"/>
<path opacity="0.67" fill-rule="evenodd" clip-rule="evenodd" d="M335.974 304.551C476.798 285.001 651.302 239.421 753.643 330.402C859.636 424.629 775.601 593.44 809.309 725.345C835.618 828.293 951.138 912.358 928.875 1016.11C906.625 1119.8 753.027 1150.35 698.176 1243.26C614.468 1385.04 698.037 1644.29 530.133 1691.5C366.159 1737.61 293.979 1465.9 137.804 1400.84C7.68635 1346.63 -200.854 1464.21 -279.084 1354.39C-360.748 1239.75 -175.004 1100.51 -173.73 963.517C-172.687 851.322 -308.174 753.77 -272.499 646.464C-236.875 539.315 -101.974 493.201 2.07062 434.736C107.346 375.579 213.948 321.49 335.974 304.551Z" stroke="#FFFFAC" stroke-opacity="0.3" stroke-width="1.58493"/>
<path opacity="0.62875" fill-rule="evenodd" clip-rule="evenodd" d="M333.496 323.695C474.977 308.672 651.107 268.713 749.929 362.92C852.277 460.488 761.879 626.501 790.555 759.407C812.936 863.136 925.192 950.852 899.001 1053.83C872.824 1156.74 718.16 1182.35 659.812 1273.44C570.768 1412.46 644.436 1674.22 474.84 1716.03C309.214 1756.85 247.402 1482.99 93.7945 1412.96C-34.1847 1354.62 -247.065 1465.43 -321.075 1353.18C-398.334 1235.99 -207.413 1102.79 -200.935 965.921C-195.629 853.828 -327.328 751.992 -287.597 645.895C-247.924 539.953 -111.353 498.191 -5.15008 443.098C102.309 387.352 210.901 336.713 333.496 323.695Z" stroke="#FFFFAC" stroke-opacity="0.3" stroke-width="1.58493"/>
<path opacity="0.5875" fill-rule="evenodd" clip-rule="evenodd" d="M330.293 342.749C472.258 332.271 649.799 297.982 744.981 395.299C843.56 496.089 746.91 659.103 770.519 792.847C788.945 897.23 897.8 988.492 867.712 1090.56C837.641 1192.58 682.098 1213.21 620.325 1302.38C526.053 1438.45 589.731 1702.42 418.65 1738.76C251.573 1774.26 200.204 1498.58 49.3508 1423.67C-76.3337 1361.26 -293.295 1465.18 -362.994 1350.62C-435.754 1231.03 -239.888 1104.03 -228.214 967.451C-218.652 855.597 -346.401 749.601 -302.664 644.842C-258.99 540.236 -120.915 502.878 -12.6841 451.223C96.8274 398.956 207.277 351.829 330.293 342.749Z" stroke="#FFFFAC" stroke-opacity="0.3" stroke-width="1.58493"/>
<path opacity="0.54625" fill-rule="evenodd" clip-rule="evenodd" d="M326.367 361.688C468.644 355.767 647.379 327.191 738.806 427.5C833.496 531.388 730.71 691.205 749.224 825.624C763.673 930.534 868.994 1025.23 835.046 1126.27C801.117 1227.26 644.885 1242.9 579.762 1330.03C480.377 1463 533.987 1728.85 361.63 1759.69C193.307 1789.8 152.443 1512.64 4.52739 1432.94C-118.709 1366.54 -339.487 1463.45 -404.791 1346.72C-472.962 1224.87 -272.391 1104.23 -255.534 968.106C-241.729 856.626 -365.373 746.6 -317.682 643.307C-270.06 540.165 -130.65 507.256 -20.5222 459.101C90.9084 410.377 203.081 366.819 326.367 361.688Z" stroke="#FFFFAC" stroke-opacity="0.3" stroke-width="1.58493"/>
<path opacity="0.505" fill-rule="evenodd" clip-rule="evenodd" d="M321.724 380.49C464.14 379.134 643.852 356.305 731.412 459.483C822.096 566.344 713.301 722.768 726.696 857.699C737.15 963.008 838.809 1061.02 801.044 1160.92C763.298 1260.76 606.567 1271.37 538.173 1356.36C433.797 1486.07 477.273 1753.47 303.849 1778.77C134.485 1803.47 104.176 1525.17 -40.6211 1440.78C-161.26 1370.46 -385.584 1460.23 -446.414 1341.48C-509.914 1217.52 -304.881 1103.38 -282.863 967.884C-264.83 856.916 -384.219 742.992 -332.632 641.291C-281.121 539.739 -140.545 511.319 -28.6549 466.724C84.5591 421.601 198.318 381.666 321.724 380.49Z" stroke="#FFFFAC" stroke-opacity="0.3" stroke-width="1.58493"/>
<path opacity="0.46375" fill-rule="evenodd" clip-rule="evenodd" d="M316.37 399.132C458.75 402.342 639.22 385.288 722.806 491.21C809.376 600.913 694.704 753.754 702.964 889.032C709.41 994.613 807.284 1095.83 765.745 1194.45C724.23 1293.02 567.191 1298.6 495.61 1381.35C386.368 1507.63 419.659 1776.26 245.379 1795.98C75.1791 1815.24 55.4625 1536.14 -86.0397 1447.16C-203.933 1373.02 -431.532 1455.54 -487.813 1334.92C-546.565 1208.99 -337.32 1101.5 -310.167 966.787C-287.929 856.464 -402.916 738.783 -347.497 638.798C-292.158 538.958 -150.589 515.062 -37.0722 474.081C77.7872 432.615 192.995 396.351 316.37 399.132Z" stroke="#FFFFAC" stroke-opacity="0.3" stroke-width="1.58493"/>
<path opacity="0.4225" fill-rule="evenodd" clip-rule="evenodd" d="M310.31 417.591C452.482 425.363 633.49 414.104 713.001 522.642C795.349 635.053 674.94 784.125 678.055 919.586C680.487 1025.31 774.455 1129.6 729.195 1226.83C683.959 1324.01 526.804 1324.55 452.122 1404.95C338.15 1527.66 361.213 1797.2 186.29 1811.32C15.4625 1825.1 6.36213 1545.54 -131.673 1452.08C-246.678 1374.21 -477.274 1449.38 -528.937 1327.03C-582.869 1199.3 -369.667 1098.57 -337.412 964.816C-310.996 855.272 -421.442 733.977 -362.258 635.829C-303.16 537.824 -160.769 518.481 -45.764 481.164C70.601 443.405 187.116 410.856 310.31 417.591Z" stroke="#FFFFAC" stroke-opacity="0.3" stroke-width="1.58493"/>
<path opacity="0.38125" fill-rule="evenodd" clip-rule="evenodd" d="M303.553 435.844C445.343 448.169 626.668 442.72 702.007 553.74C780.035 668.722 654.035 813.844 652.001 949.322C650.414 1055.06 740.363 1162.3 691.436 1258.02C642.536 1353.69 485.456 1349.19 407.764 1427.15C289.199 1546.13 302.008 1816.24 126.655 1824.74C-44.5925 1833.05 -43.0656 1553.37 -177.466 1455.53C-289.442 1374.02 -522.753 1441.76 -569.736 1317.82C-618.782 1188.44 -401.883 1094.61 -364.566 961.972C-334.004 853.342 -439.775 728.58 -376.897 632.389C-314.111 536.338 -171.072 521.571 -54.7196 487.964C63.0091 453.958 180.69 425.165 303.553 435.844Z" stroke="#FFFFAC" stroke-opacity="0.3" stroke-width="1.58493"/>
<path opacity="0.34" fill-rule="evenodd" clip-rule="evenodd" d="M296.107 453.87C437.342 470.732 618.764 471.099 689.839 584.467C763.45 701.88 632.013 842.874 624.833 978.204C619.23 1083.83 705.049 1193.88 652.515 1287.98C600.01 1382.02 443.196 1372.49 362.59 1447.91C239.577 1563.02 242.115 1833.38 66.5462 1836.25C-104.913 1839.06 -92.7604 1559.6 -223.361 1457.52C-332.173 1372.47 -567.915 1432.68 -610.161 1307.32C-654.261 1176.44 -433.93 1089.62 -391.595 958.259C-356.925 850.675 -457.891 722.598 -391.397 628.481C-325 534.502 -181.486 524.33 -63.928 494.472C55.0209 464.262 173.724 439.258 296.107 453.87Z" stroke="#FFFFAC" stroke-opacity="0.3" stroke-width="1.58493"/>
<path opacity="0.29875" fill-rule="evenodd" clip-rule="evenodd" d="M287.98 471.645C428.488 493.025 609.786 499.208 676.51 614.785C745.615 734.486 608.902 871.181 596.585 1006.2C586.971 1111.58 668.557 1224.32 612.48 1316.67C556.434 1408.97 400.077 1394.43 316.655 1467.22C189.344 1578.3 181.608 1848.58 6.03653 1845.83C-165.425 1843.14 -142.662 1564.24 -269.305 1458.03C-374.818 1369.54 -612.705 1422.17 -650.162 1295.52C-689.262 1163.31 -465.767 1083.61 -418.467 953.682C-379.73 847.275 -475.768 716.04 -405.739 624.112C-335.812 532.318 -191.999 526.753 -73.3782 500.682C46.6461 474.303 166.227 453.119 287.98 471.645Z" stroke="#FFFFAC" stroke-opacity="0.3" stroke-width="1.58493"/>
<path opacity="0.2575" fill-rule="evenodd" clip-rule="evenodd" d="M279.183 489.15C418.793 515.021 599.745 527.011 662.038 644.657C726.553 766.501 584.729 898.73 567.289 1033.27C553.678 1138.27 630.931 1253.56 571.379 1344.06C511.86 1434.51 356.151 1414.96 270.014 1485.03C138.56 1591.97 120.56 1861.84 -54.8 1853.46C-226.055 1845.27 -192.709 1567.27 -315.239 1457.07C-417.327 1365.25 -657.068 1410.22 -689.69 1282.45C-723.744 1149.07 -497.356 1076.58 -445.149 948.246C-402.393 843.146 -493.386 708.912 -419.906 619.285C-346.534 529.789 -202.598 528.837 -83.0585 506.585C37.895 484.069 158.208 466.732 279.183 489.15Z" stroke="#FFFFAC" stroke-opacity="0.3" stroke-width="1.58493"/>
<path opacity="0.21625" fill-rule="evenodd" clip-rule="evenodd" d="M269.726 506.362C408.268 536.692 588.655 554.476 646.439 674.047C706.286 797.885 559.524 925.487 536.983 1059.39C519.391 1163.89 592.216 1281.58 529.262 1370.12C466.343 1458.61 311.472 1434.08 222.725 1501.34C87.2875 1604 59.045 1873.13 -115.889 1859.13C-286.729 1845.46 -242.841 1568.7 -361.11 1454.63C-459.646 1359.6 -700.95 1396.86 -728.697 1268.12C-757.663 1133.73 -528.659 1068.54 -471.608 941.959C-424.884 838.293 -510.722 701.224 -433.882 614.007C-357.154 526.918 -213.269 530.58 -92.9572 512.174C28.7781 493.549 149.676 480.08 269.726 506.362Z" stroke="#FFFFAC" stroke-opacity="0.3" stroke-width="1.58493"/>
<path opacity="0.175" fill-rule="evenodd" clip-rule="evenodd" d="M259.621 523.26C396.926 558.013 576.527 581.569 629.733 702.919C684.838 828.6 533.318 951.42 505.704 1084.52C484.152 1188.39 552.46 1308.35 486.181 1394.81C419.938 1481.23 266.094 1451.75 174.845 1516.13C35.5893 1614.38 -2.86117 1882.44 -177.157 1862.84C-347.373 1843.71 -292.996 1568.52 -406.859 1450.73C-501.725 1352.6 -744.298 1382.1 -767.137 1252.55C-790.979 1117.31 -559.637 1059.5 -497.811 934.827C-447.178 832.722 -527.755 692.985 -447.648 608.284C-367.658 523.707 -224 531.98 -103.062 517.442C19.3065 502.731 140.643 493.145 259.621 523.26Z" stroke="#FFFFAC" stroke-opacity="0.3" stroke-width="1.58493"/>
<path opacity="0.13375" fill-rule="evenodd" clip-rule="evenodd" d="M248.88 539.824C384.781 578.957 563.378 608.256 611.941 731.238C662.237 858.609 506.142 976.497 473.488 1108.63C448.002 1211.75 511.712 1333.82 442.188 1418.11C372.702 1502.35 220.071 1467.95 126.432 1529.37C-16.4719 1623.1 -65.0834 1889.76 -238.529 1864.59C-407.914 1840.01 -343.115 1566.73 -452.433 1445.37C-543.513 1344.25 -787.058 1365.95 -804.961 1235.75C-823.65 1099.83 -590.253 1049.48 -523.728 926.859C-469.246 826.44 -544.465 684.204 -461.189 602.124C-378.034 520.163 -234.778 533.036 -113.361 522.383C9.49187 511.604 131.118 505.913 248.88 539.824Z" stroke="#FFFFAC" stroke-opacity="0.3" stroke-width="1.58493"/>
<path opacity="0.0925" fill-rule="evenodd" clip-rule="evenodd" d="M237.516 556.033C371.848 599.5 549.222 634.506 593.083 758.97C638.509 887.875 478.031 1000.69 440.376 1131.69C410.988 1233.93 470.021 1357.97 397.337 1439.98C324.692 1521.94 173.461 1482.67 77.5456 1541.05C-68.8324 1630.15 -127.546 1895.08 -299.929 1864.37C-468.277 1834.37 -393.134 1563.34 -497.775 1438.54C-584.958 1334.57 -829.179 1348.45 -842.124 1217.75C-855.638 1081.32 -620.47 1038.47 -549.326 918.066C-491.062 819.454 -560.831 674.894 -474.487 595.533C-388.269 516.287 -245.589 533.745 -123.842 526.991C-0.653872 520.157 121.115 518.369 237.516 556.033Z" stroke="#FFFFAC" stroke-opacity="0.3" stroke-width="1.58493"/>
<path opacity="0.05125" fill-rule="evenodd" clip-rule="evenodd" d="M225.543 571.868C358.142 619.615 534.078 660.286 573.183 786.08C613.684 916.363 449.017 1023.96 406.408 1153.68C373.153 1254.91 427.437 1380.77 351.682 1460.4C275.967 1539.98 126.321 1495.89 28.2451 1551.16C-121.429 1635.51 -190.172 1898.4 -361.284 1862.18C-528.39 1826.8 -442.995 1558.34 -542.83 1430.27C-626.009 1323.57 -870.609 1329.61 -878.581 1198.58C-886.902 1061.79 -650.25 1026.51 -574.575 908.457C-512.6 811.773 -576.834 665.064 -487.527 588.519C-398.351 512.086 -256.421 534.107 -134.491 531.26C-11.1184 528.379 110.644 530.495 225.543 571.868Z" stroke="#FFFFAC" stroke-opacity="0.3" stroke-width="1.58493"/>
<path opacity="0.01" fill-rule="evenodd" clip-rule="evenodd" d="M212.982 587.31C343.686 639.278 517.97 685.564 552.272 812.535C587.798 944.038 419.143 1046.29 371.632 1174.56C334.551 1274.67 384.019 1402.19 305.285 1479.34C226.593 1556.45 78.7123 1507.59 -21.4033 1559.68C-174.191 1639.18 -252.881 1899.71 -422.512 1858.02C-588.172 1817.31 -492.629 1551.75 -587.538 1420.56C-666.612 1311.25 -911.293 1309.45 -914.281 1178.24C-917.4 1041.27 -679.551 1013.6 -599.437 898.044C-533.826 803.406 -592.447 654.728 -500.286 581.092C-408.26 507.564 -267.254 534.122 -145.29 535.185C-21.8829 536.261 99.7249 542.279 212.982 587.31Z" stroke="#FFFFAC" stroke-opacity="0.3" stroke-width="1.58493"/>
</g>
<defs>
<clipPath id="clip0_2157_546">
<rect width="1134" height="1170" fill="white"/>
</clipPath>
</defs>
</svg>
