<svg width="875" height="878" viewBox="0 0 875 878" fill="none" xmlns="http://www.w3.org/2000/svg">
<path d="M961.093 1194.97C874.812 1379.26 603.052 1385.28 477.957 1365.25C67.7497 1307.19 389.046 672.179 709.183 771.387C1029.32 870.595 710.327 243.484 905.353 312.942C1100.38 382.399 1296.47 741.924 1288.72 922.585C1280.97 1103.25 1068.94 964.604 961.093 1194.97Z" stroke="#5F2F1480" stroke-opacity="0.5" stroke-width="2.16405"/>
<path d="M652.364 952.904C606.839 1049.94 463.635 1053.2 397.724 1042.69C181.588 1012.26 351.098 677.902 519.759 730.019C688.421 782.137 520.534 452.141 623.278 488.639C726.023 525.137 829.238 714.32 825.094 809.419C820.951 904.518 709.27 831.608 652.364 952.904Z" stroke="#5F2F1480" stroke-opacity="0.5" stroke-width="2.16405"/>
<path d="M946.176 1183.48C861.978 1363.6 596.528 1369.36 474.328 1349.73C73.6179 1292.79 387.179 672.182 699.928 769.302C1012.68 866.422 700.816 253.255 891.345 321.237C1081.87 389.22 1273.57 740.757 1266.08 917.358C1258.59 1093.96 1051.42 958.337 946.176 1183.48Z" stroke="#5F2F1480" stroke-opacity="0.5" stroke-width="2.16405"/>
<path d="M931.383 1172C849.036 1347.93 589.63 1353.65 470.219 1334.52C78.6544 1279.07 385.304 672.869 690.896 767.6C996.488 862.331 691.953 263.633 878.119 329.954C1064.28 396.274 1251.49 739.512 1244.1 911.981C1236.71 1084.45 1034.32 952.08 931.383 1172Z" stroke="#5F2F1480" stroke-opacity="0.5" stroke-width="2.16405"/>
<path d="M916.843 1160.34C836.485 1332.13 583.237 1337.68 466.658 1318.97C84.3768 1264.74 383.63 672.784 681.986 765.357C980.342 857.93 682.921 273.184 864.68 337.989C1046.44 402.794 1229.27 738.035 1222.09 906.466C1214.91 1074.9 1017.29 945.586 916.843 1160.34Z" stroke="#5F2F1480" stroke-opacity="0.5" stroke-width="2.16405"/>
<path d="M902.051 1148.85C823.544 1316.46 576.338 1321.96 462.549 1303.76C89.4136 1251.01 381.755 673.469 672.954 763.654C964.152 853.838 674.058 283.561 851.454 346.704C1028.85 409.847 1207.18 736.788 1200.11 901.089C1193.04 1065.39 1000.19 939.329 902.051 1148.85Z" stroke="#5F2F1480" stroke-opacity="0.5" stroke-width="2.16405"/>
<path d="M887.515 1137.19C810.997 1300.67 569.95 1305.99 458.991 1288.21C95.1402 1236.68 380.086 673.384 664.048 761.411C948.011 849.438 665.03 293.112 838.019 354.739C1011.01 416.366 1184.97 735.311 1178.1 895.574C1171.24 1055.84 983.163 932.835 887.515 1137.19Z" stroke="#5F2F1480" stroke-opacity="0.5" stroke-width="2.16405"/>
<path d="M872.718 1125.7C798.05 1284.99 563.046 1290.28 454.877 1273C100.171 1222.95 378.205 674.07 655.01 759.709C931.816 845.347 656.162 303.489 824.788 363.455C993.414 423.421 1162.88 734.066 1156.12 890.198C1149.36 1046.33 966.052 926.578 872.718 1125.7Z" stroke="#5F2F1480" stroke-opacity="0.5" stroke-width="2.16405"/>
<path d="M858.183 1114.04C785.504 1269.2 556.658 1274.3 451.32 1257.45C105.899 1208.62 376.536 673.984 646.106 757.465C915.675 840.945 647.135 313.04 811.354 371.489C975.574 429.939 1140.66 732.588 1134.11 884.682C1127.56 1036.78 949.031 920.083 858.183 1114.04Z" stroke="#5F2F1480" stroke-opacity="0.5" stroke-width="2.16405"/>
<path d="M843.267 1103.29C772.621 1254.41 549.898 1259.25 447.368 1242.78C111.157 1195 374.251 674.294 636.659 755.778C899.066 837.262 637.406 322.801 797.267 379.839C957.128 436.877 1117.97 731.825 1111.68 879.997C1105.39 1028.17 931.575 914.381 843.267 1103.29Z" stroke="#5F2F1480" stroke-opacity="0.5" stroke-width="2.16405"/>
<path d="M828.753 1091.67C760.051 1238.57 543.524 1243.3 443.847 1227.3C116.994 1180.91 372.838 674.77 627.936 753.935C883.035 833.099 628.72 333.098 784.127 388.516C939.534 443.933 1095.86 730.59 1089.73 874.608C1083.6 1018.63 914.629 908.052 828.753 1091.67Z" stroke="#5F2F1480" stroke-opacity="0.5" stroke-width="2.16405"/>
<path d="M813.941 1080.14C747.134 1222.94 536.613 1227.56 439.703 1212.02C121.922 1166.95 370.708 674.895 618.723 751.833C866.737 828.771 619.517 342.729 770.609 396.59C921.7 450.45 1073.67 729.102 1067.7 869.106C1061.72 1009.11 897.449 901.631 813.941 1080.14Z" stroke="#5F2F1480" stroke-opacity="0.5" stroke-width="2.16405"/>
<path d="M799.421 1068.52C734.559 1207.1 530.233 1211.61 436.177 1196.54C127.754 1152.86 369.29 675.371 609.995 749.989C850.7 824.608 610.826 353.027 757.463 405.267C904.1 457.507 1051.56 727.867 1045.74 863.717C1039.92 999.567 880.498 895.301 799.421 1068.52Z" stroke="#5F2F1480" stroke-opacity="0.5" stroke-width="2.16405"/>
<path d="M784.608 1056.99C721.641 1191.48 523.322 1195.87 432.033 1181.26C132.681 1138.89 367.159 675.497 600.78 747.888C834.402 820.279 601.622 362.658 743.943 413.341C886.265 464.024 1029.36 726.38 1023.7 858.215C1018.04 990.05 863.317 888.88 784.608 1056.99Z" stroke="#5F2F1480" stroke-opacity="0.5" stroke-width="2.16405"/>
<path d="M770.068 1045.33C709.09 1175.68 516.929 1179.89 428.471 1165.7C138.403 1124.56 365.484 675.411 591.87 745.645C818.256 815.878 592.59 372.209 730.504 421.376C868.419 470.543 1007.14 724.903 1001.69 852.7C996.238 980.497 846.29 882.386 770.068 1045.33Z" stroke="#5F2F1480" stroke-opacity="0.5" stroke-width="2.16405"/>
<path d="M755.276 1033.84C696.148 1160.01 510.03 1164.18 424.362 1150.5C143.44 1110.83 363.609 676.097 582.838 743.942C802.066 811.787 583.727 382.586 717.278 430.091C850.83 477.597 985.055 723.656 979.71 847.323C974.365 970.989 829.185 876.129 755.276 1033.84Z" stroke="#5F2F1480" stroke-opacity="0.5" stroke-width="2.16405"/>
<path d="M740.735 1022.18C683.597 1144.21 503.637 1148.2 420.8 1134.94C149.162 1096.5 361.935 676.012 573.928 741.699C785.92 807.386 574.694 392.137 703.839 438.127C832.984 484.116 962.832 722.179 957.696 841.808C952.559 961.436 812.158 869.635 740.735 1022.18Z" stroke="#5F2F1480" stroke-opacity="0.5" stroke-width="2.16405"/>
<path d="M725.566 1010.86C670.373 1128.67 496.608 1132.55 416.625 1119.77C154.344 1082.71 359.868 676.787 564.551 740.155C769.234 803.523 565.353 402.735 690.044 447.103C814.736 491.472 940.071 721.244 935.09 836.719C930.11 952.193 794.558 863.605 725.566 1010.86Z" stroke="#5F2F1480" stroke-opacity="0.5" stroke-width="2.16405"/>
<path d="M711.025 999.203C657.821 1112.88 490.215 1116.57 413.062 1104.21C160.066 1068.38 358.193 676.702 555.64 737.912C753.088 799.122 556.32 412.286 676.605 455.139C796.889 497.991 917.848 719.767 913.076 831.204C908.304 942.641 777.531 857.111 711.025 999.203Z" stroke="#5F2F1480" stroke-opacity="0.5" stroke-width="2.16405"/>
<path d="M696.233 987.715C644.88 1097.2 483.316 1100.86 408.953 1089.01C165.103 1054.65 356.318 677.388 546.608 736.21C736.898 795.031 547.458 422.663 663.379 463.855C779.3 505.046 895.764 718.522 891.097 825.827C886.431 933.133 760.425 850.855 696.233 987.715Z" stroke="#5F2F1480" stroke-opacity="0.5" stroke-width="2.16405"/>
<path d="M681.693 976.054C632.329 1081.41 476.924 1084.89 405.392 1073.45C170.825 1040.32 354.644 677.302 537.698 733.966C720.753 790.629 538.425 432.214 649.94 471.889C761.455 511.564 873.541 717.044 869.083 820.311C864.626 923.579 743.399 844.36 681.693 976.054Z" stroke="#5F2F1480" stroke-opacity="0.5" stroke-width="2.16405"/>
<path d="M666.878 964.52C619.408 1065.79 470.01 1069.15 401.245 1058.17C175.75 1026.36 352.511 677.428 528.482 731.864C704.452 786.3 529.22 441.845 636.419 479.963C743.618 518.081 851.344 715.556 847.045 814.809C842.746 914.062 726.216 837.939 666.878 964.52Z" stroke="#5F2F1480" stroke-opacity="0.5" stroke-width="2.16405"/>
</svg>
