<svg width="1840" height="945" viewBox="0 0 1840 945" fill="none" xmlns="http://www.w3.org/2000/svg">
<path d="M-187.456 -93.913C-412.588 203.36 -52.0964 518.983 355.218 617.135C824.639 730.209 1242.86 527.122 1523.08 691.592C1778.88 841.599 1561.11 1087.52 1761.34 1185.4C1945.37 1275.34 2433.99 1216.64 3711.97 638.55" stroke="#FFFFAC" stroke-opacity="0.4" stroke-width="1.21124" stroke-miterlimit="10"/>
<path d="M3704.29 605.05C2443.45 1174.48 1949.09 1238.77 1755.61 1154.5C1612.38 1091.88 1664.13 958.853 1625.62 834.961C1607.8 771.693 1562.91 717.277 1494.97 676.601C1272.58 543.197 968.976 637.851 608.46 620.408C516.398 616.135 428.875 604.531 347.695 585.833C-65.7486 491.816 -443.818 201.685 -237.129 -87.3608" stroke="#FFFFAC" stroke-opacity="0.4" stroke-width="1.21124" stroke-miterlimit="10"/>
<path d="M3696.49 571.602C2452.84 1132.3 1953 1202.17 1750.59 1123.66C1601.81 1065.93 1644.32 937.535 1600.98 818.228C1579.96 756.267 1534.34 702.745 1467.58 661.742C1250.28 528.338 960.118 609.395 601.24 588.944C509.919 583.868 422.676 572.358 340.905 554.6C-77.8113 463.774 -474.349 200.145 -286.107 -80.6624" stroke="#FFFFAC" stroke-opacity="0.4" stroke-width="1.21124" stroke-miterlimit="10"/>
<path d="M3688.68 538.228C2462.53 1090.07 1957.06 1165.42 1745.31 1092.74C1590.95 1039.78 1624.39 916.184 1576.06 801.366C1551.96 740.776 1505.69 688.143 1440.19 646.822C1227.72 513.355 951.54 581.013 594.023 557.422C503.283 551.662 416.178 540.277 333.779 523.406C-90.6693 436.329 -505.141 198.668 -335.349 -73.8947" stroke="#FFFFAC" stroke-opacity="0.4" stroke-width="1.21124" stroke-miterlimit="10"/>
<path d="M3681.04 504.586C2472.01 1047.8 1961.28 1128.59 1740 1061.7C1580.31 1013.5 1604.35 894.636 1550.96 784.477C1523.76 725.227 1476.72 673.414 1412.33 631.753C1204.71 498.231 942.363 552.386 586.038 525.672C496.173 519.133 409.441 507.85 326.612 491.923C-103.621 408.583 -535.966 196.852 -384.694 -67.4665" stroke="#FFFFAC" stroke-opacity="0.4" stroke-width="1.21124" stroke-miterlimit="10"/>
<path d="M3673.62 471.073C2481.64 1005.46 1960.75 1096.38 1734.76 1030.62C1573.31 983.822 1584.1 873.361 1526.17 767.509C1495.82 709.686 1448.03 658.701 1384.8 616.681C1182.02 483.113 933.663 523.798 579.051 494.031C489.878 486.828 403.363 475.671 320.045 460.631C-116.148 381.228 -566.204 195.289 -433.342 -60.7998" stroke="#FFFFAC" stroke-opacity="0.4" stroke-width="1.21124" stroke-miterlimit="10"/>
<path d="M3665.58 437.342C2491.24 962.977 1970.28 1054.33 1729.35 999.717C1559.8 960.525 1564.01 851.666 1501.38 750.386C1467.94 694.026 1419.41 643.851 1357.35 601.476C1159.41 467.868 924.791 495.085 571.834 462.25C483.406 454.323 397.131 443.259 313.349 429.103C-128.602 353.443 -596.693 193.638 -482.145 -54.3116" stroke="#FFFFAC" stroke-opacity="0.4" stroke-width="1.21124" stroke-miterlimit="10"/>
<path d="M3657.88 403.706C2501.02 920.605 1974.61 1017.45 1724.43 968.266C1549.5 934.072 1543.39 830.387 1476.51 733.367C1440.02 678.52 1390.69 629.16 1329.72 586.472C1136.75 452.791 915.958 466.448 564.444 430.676C482.715 422.29 396.496 412.285 306.433 397.831C-141.486 326.041 -627.014 191.838 -531.016 -47.7306" stroke="#FFFFAC" stroke-opacity="0.4" stroke-width="1.21124" stroke-miterlimit="10"/>
<path d="M3650.18 369.989C2510.56 877.968 1979.54 979.891 1719.29 937.08C1539.35 907.427 1522.87 808.907 1451.59 716.236C1412.01 662.928 1361.91 614.314 1302.12 571.208C1114 437.5 907.039 437.78 557.162 398.815C475.692 389.762 389.78 379.711 299.571 366.258C-153.649 298.444 -657.155 190.005 -579.66 -41.2112" stroke="#FFFFAC" stroke-opacity="0.4" stroke-width="1.21124" stroke-miterlimit="10"/>
<path d="M3642.38 336.276C2520.21 835.381 1984.41 942.388 1714.36 905.591C1529.53 880.444 1502.14 787.201 1427.17 698.996C1384.59 647.27 1333.74 599.391 1275.16 555.868C1091.84 422.119 898.727 408.917 550.219 367.121C469.339 357.482 383.374 347.417 293.068 334.916C-166.675 271.074 -687.524 188.42 -628.432 -34.5426" stroke="#FFFFAC" stroke-opacity="0.4" stroke-width="1.21124" stroke-miterlimit="10"/>
<path d="M3634.7 302.471C2529.97 792.71 1989.44 904.673 1709.56 874.183C1519.91 853.491 1481.79 765.694 1402.8 681.63C1357.16 631.565 1305.49 584.428 1248.09 540.495C1069.7 406.75 890.396 380.126 543.687 334.997C463.166 324.595 377.368 314.632 287.084 303.051C-178.699 243.298 -716.963 186.268 -676.449 -28.4109" stroke="#FFFFAC" stroke-opacity="0.4" stroke-width="1.21124" stroke-miterlimit="10"/>
<path d="M3627.01 268.61C2539.73 749.895 1994.38 866.835 1704.49 842.598C1510 826.294 1461 744.023 1378.25 664.168C1330.66 618.286 1281.54 571.712 1220.84 524.967C1047.26 391.266 881.866 351.135 536.743 302.989C456.668 291.906 370.974 282.029 280.516 271.318C-191.29 215.653 -747.011 184.212 -724.822 -22.1774" stroke="#FFFFAC" stroke-opacity="0.4" stroke-width="1.21124" stroke-miterlimit="10"/>
<path d="M3619.31 234.706C2549.67 706.858 1999.94 828.924 1699.74 810.917C1500.38 799.046 1440.2 722.351 1353.87 646.627C1302.93 601.933 1252.85 556.116 1193.82 509.385C1025.26 375.544 873.598 322.184 530.057 270.962C450.479 259.15 364.826 249.343 274.48 239.634C-203.356 188.171 -776.469 182.18 -772.664 -15.9273" stroke="#FFFFAC" stroke-opacity="0.4" stroke-width="1.21124" stroke-miterlimit="10"/>
<path d="M3611.77 200.769C2559.39 664.088 2004.89 790.675 1695.08 779.122C1491.01 771.533 1419.47 700.608 1329.65 628.917C1275.2 585.495 1224.29 540.405 1167.24 493.709C1003.34 360.014 865.809 293.118 523.599 238.761C444.359 226.304 358.882 216.6 268.549 207.745C-215.457 160.563 -805.866 180.008 -820.434 -9.81318" stroke="#FFFFAC" stroke-opacity="0.4" stroke-width="1.21124" stroke-miterlimit="10"/>
<path d="M3603.85 166.682C2569.23 620.999 2010.49 752.266 1690.42 747.174C1481.52 743.893 1398.66 678.803 1305.54 611.131C1247.55 569.033 1195.77 524.543 1140.19 477.82C981.306 344.188 857.443 263.912 517.174 206.578C434.549 193.349 349.531 183.145 262.456 176.006C-227.317 132.893 -835.093 177.524 -867.967 -3.80591" stroke="#FFFFAC" stroke-opacity="0.4" stroke-width="1.21124" stroke-miterlimit="10"/>
<path d="M3596.17 132.535C2579.17 577.764 2015.49 713.751 1686.12 715.162C1472.47 716.134 1378.14 656.957 1281.49 593.125C1219.91 552.402 1167.39 508.548 1113.6 461.82C959.537 328.217 849.588 234.591 511.098 174.305C429.301 160.365 344.452 150.21 257.079 143.903C-239.249 105.44 -863.758 175.115 -915.43 2.21507" stroke="#FFFFAC" stroke-opacity="0.4" stroke-width="1.21124" stroke-miterlimit="10"/>
<path d="M3588.49 98.2975C2589.18 534.464 2020.92 674.74 1681.49 682.864C1463.33 688.017 1357.28 634.927 1257.7 575.02C1192.48 535.721 1139.38 492.362 1087.27 445.668C938.156 312.141 841.934 205.216 504.962 141.861C423.939 127.276 339.204 117.218 251.516 111.778C-250.522 77.5547 -892.257 172.444 -962.11 7.70515" stroke="#FFFFAC" stroke-opacity="0.4" stroke-width="1.21124" stroke-miterlimit="10"/>
<path d="M3580.84 61.6453C2601.01 487.169 2029.31 631.788 1680.32 646.289C1457.58 655.587 1340.23 608.823 1237.81 552.802C1168.72 515.069 1115.31 472.38 1065 425.809C920.898 292.838 838.788 172.889 503.994 106.684C423.848 91.5307 339.35 81.5947 251.519 76.9957C-255.786 47.2765 -913.531 166.784 -1001.56 10.8058" stroke="#FFFFAC" stroke-opacity="0.4" stroke-width="1.21124" stroke-miterlimit="10"/>
<path d="M3573.27 24.9228C2612.79 440.335 2037.54 588.53 1679.43 609.386C1452.4 622.73 1323.71 582.341 1218.5 530.005C1146.15 493.798 1091.83 451.745 1043.39 405.385C904.494 272.79 836.188 140.117 503.524 71.2566C424.266 55.5415 340.001 45.726 252.046 41.9638C-260.492 16.7632 -934.185 160.347 -1040.11 13.3038" stroke="#FFFFAC" stroke-opacity="0.4" stroke-width="1.21124" stroke-miterlimit="10"/>
<path d="M3565.69 -11.8044C2624.2 393.175 2045.74 545.281 1678.39 572.807C1446.92 590.178 1306.92 556.225 1198.84 507.642C1122.64 473.334 1068.22 431.579 1021.57 385.285C887.819 253.184 833.307 107.851 502.961 36.1049C424.617 19.809 340.572 10.1119 252.495 7.20605C-265.29 -13.3516 -954.409 154.44 -1078.56 15.8599" stroke="#FFFFAC" stroke-opacity="0.4" stroke-width="1.21124" stroke-miterlimit="10"/>
<path d="M3558 -48.4491C2635.77 346.291 2054.15 501.933 1677.7 536.219C1441.97 557.506 1290.7 530.045 1179.91 485.037C1099.92 452.562 1045.19 411.165 1000.24 365.159C871.547 233.46 830.812 75.5196 502.704 1.06816C425.212 -15.7574 341.362 -25.3432 253.186 -27.4568C-269.865 -42.9456 -974.195 148 -1116.48 18.0434" stroke="#FFFFAC" stroke-opacity="0.4" stroke-width="1.21124" stroke-miterlimit="10"/>
<path d="M3550.5 -85.0466C2084.82 539.23 1456.27 570.584 1160.49 462.273C837.595 344.043 941.856 70.0645 502.091 -34.1784C-13.8407 -156.413 -967.267 161.897 -1154.38 19.8781" stroke="#FFFFAC" stroke-opacity="0.4" stroke-width="1.21124" stroke-miterlimit="10"/>
</svg>
