<svg width="756" height="1424" viewBox="0 0 756 1424" fill="none" xmlns="http://www.w3.org/2000/svg">
<path d="M-176.213 499.081C-439.252 632.284 -287.229 901.848 -178.338 1019.98C149.291 1295.32 250.102 959.176 108.824 738.625C-32.4538 518.073 457.199 617.722 433.109 292.411C405.177 -84.7997 152.586 332.577 -176.213 499.081Z" stroke="#FFFFAC" stroke-opacity="0.4" stroke-width="3"/>
<path opacity="0.95875" d="M-166.288 508.951C-433.815 632.893 -291.293 907.599 -186.591 1029.46C131.229 1316.06 243.71 983.645 110.215 758.297C-23.2793 532.95 462.597 649.626 449.876 323.673C435.125 -54.283 168.121 354.024 -166.288 508.951Z" stroke="#FFFFAC" stroke-opacity="0.4" stroke-width="3"/>
<path opacity="0.9175" d="M-156.713 519.163C-428.403 633.692 -295.555 913.205 -195.169 1038.65C112.454 1336.17 236.468 1007.88 110.919 778.006C-14.6296 548.137 466.879 681.699 465.541 355.501C463.99 -22.7397 182.899 376 -156.713 519.163Z" stroke="#FFFFAC" stroke-opacity="0.4" stroke-width="3"/>
<path opacity="0.87625" d="M-147.501 529.702C-423.023 634.68 -300.01 918.659 -204.063 1047.53C92.9895 1355.6 228.385 1031.84 110.935 797.728C-6.51519 563.617 470.039 713.902 480.086 387.856C491.736 9.7918 196.901 398.479 -147.501 529.702Z" stroke="#FFFFAC" stroke-opacity="0.4" stroke-width="3"/>
<path opacity="0.835" d="M-138.663 540.556C-417.68 635.855 -304.653 923.953 -213.262 1056.09C72.8582 1374.35 219.47 1055.51 110.262 817.438C1.05403 579.371 472.073 746.196 493.493 420.699C518.33 43.2718 210.109 421.433 -138.663 540.556Z" stroke="#FFFFAC" stroke-opacity="0.4" stroke-width="3"/>
<path opacity="0.79375" d="M-130.208 551.712C-412.381 637.215 -309.477 929.083 -222.754 1064.33C52.0851 1392.38 209.735 1078.85 108.902 837.113C8.06885 595.38 472.979 778.541 505.745 453.99C543.739 77.6594 222.509 444.833 -130.208 551.712Z" stroke="#FFFFAC" stroke-opacity="0.4" stroke-width="3"/>
<path opacity="0.7525" d="M-122.148 563.156C-407.133 638.76 -314.478 934.041 -232.528 1072.23C30.6954 1409.67 199.191 1101.83 106.856 856.728C14.5207 611.623 472.755 810.898 516.828 487.688C567.933 112.913 234.084 468.652 -122.148 563.156Z" stroke="#FFFFAC" stroke-opacity="0.4" stroke-width="3"/>
<path opacity="0.71125" d="M-114.492 574.875C-401.942 640.486 -319.649 938.821 -242.571 1079.79C8.7151 1426.21 187.852 1124.44 104.127 876.26C20.4017 628.082 471.402 843.228 526.728 521.753C590.881 148.989 244.821 492.861 -114.492 574.875Z" stroke="#FFFFAC" stroke-opacity="0.4" stroke-width="3"/>
<path opacity="0.67" d="M-107.25 586.854C-396.815 642.393 -324.983 943.418 -252.872 1086.99C-13.8289 1441.97 175.73 1146.63 100.717 895.685C25.7048 644.736 468.922 875.491 535.434 556.142C612.557 185.845 254.706 517.429 -107.25 586.854Z" stroke="#FFFFAC" stroke-opacity="0.4" stroke-width="3"/>
<path opacity="0.62875" d="M-100.43 599.078C-391.757 644.478 -330.475 947.827 -263.418 1093.83C-36.9092 1456.93 162.841 1168.39 96.6324 914.979C30.4233 661.565 465.317 907.647 542.934 590.814C632.933 223.434 263.728 542.328 -100.43 599.078Z" stroke="#FFFFAC" stroke-opacity="0.4" stroke-width="3"/>
<path opacity="0.5875" d="M-94.0416 611.532C-386.775 646.738 -336.117 952.04 -274.197 1100.29C-60.4977 1471.08 149.201 1189.69 91.8764 934.118C34.5517 678.548 460.593 939.658 549.219 625.727C651.985 261.711 271.876 567.526 -94.0416 611.532Z" stroke="#FFFFAC" stroke-opacity="0.4" stroke-width="3"/>
<path opacity="0.54625" d="M-88.0912 624.202C-381.875 649.17 -341.903 956.055 -285.194 1106.38C-84.5655 1484.4 134.826 1210.5 86.4554 953.08C38.0849 695.665 454.754 971.485 554.282 660.838C669.689 300.631 279.139 592.993 -88.0912 624.202Z" stroke="#FFFFAC" stroke-opacity="0.4" stroke-width="3"/>
<path opacity="0.505" d="M-82.5867 637.072C-377.063 651.772 -347.825 959.865 -296.397 1112.07C-109.083 1496.87 119.733 1230.79 80.3759 971.842C41.0186 712.895 447.808 1003.09 558.117 696.104C686.025 340.144 285.509 618.698 -82.5867 637.072Z" stroke="#FFFFAC" stroke-opacity="0.4" stroke-width="3"/>
<path opacity="0.46375" d="M-77.5347 650.127C-372.345 654.54 -353.877 963.466 -307.792 1117.38C-134.022 1508.47 103.942 1250.54 73.6454 990.379C43.3491 730.217 439.763 1034.43 560.718 731.483C700.971 380.203 290.978 644.61 -77.5347 650.127Z" stroke="#FFFFAC" stroke-opacity="0.4" stroke-width="3"/>
<path opacity="0.4225" d="M-72.9413 663.349C-367.726 657.471 -360.051 966.853 -319.365 1122.28C-159.35 1519.2 87.4703 1269.73 66.272 1008.67C45.0737 747.61 430.629 1065.47 562.084 766.93C714.511 420.76 295.539 670.697 -72.9413 663.349Z" stroke="#FFFFAC" stroke-opacity="0.4" stroke-width="3"/>
<path opacity="0.38125" d="M-68.8123 676.724C-363.212 660.562 -366.339 970.023 -331.102 1126.77C-185.037 1529.04 70.3392 1288.34 58.2647 1026.69C46.1903 765.052 420.418 1096.18 562.211 802.404C726.626 461.764 299.188 696.927 -68.8123 676.724Z" stroke="#FFFFAC" stroke-opacity="0.4" stroke-width="3"/>
<path opacity="0.34" d="M-65.1525 690.235C-358.809 663.808 -372.734 972.972 -342.989 1130.86C-211.052 1537.97 52.5693 1306.33 49.6334 1044.43C46.6974 782.522 409.141 1126.51 561.1 837.861C737.304 503.166 301.918 723.269 -65.1525 690.235Z" stroke="#FFFFAC" stroke-opacity="0.4" stroke-width="3"/>
<path opacity="0.29875" d="M-61.9664 703.865C-354.522 667.206 -379.228 975.695 -355.011 1134.52C-237.362 1546 34.1822 1323.69 40.3884 1061.85C46.5945 800 396.812 1156.42 558.753 873.257C746.529 544.916 303.728 749.689 -61.9664 703.865Z" stroke="#FFFFAC" stroke-opacity="0.4" stroke-width="3"/>
<path opacity="0.2575" d="M-59.258 717.599C-350.356 670.752 -385.813 978.191 -367.154 1137.77C-263.937 1553.09 15.2004 1340.4 30.5411 1078.93C45.8818 817.463 383.447 1185.89 555.171 908.55C754.293 586.962 304.614 776.157 -59.258 717.599Z" stroke="#FFFFAC" stroke-opacity="0.4" stroke-width="3"/>
<path opacity="0.21625" d="M-57.0305 731.418C-346.316 674.44 -392.481 980.455 -379.403 1140.58C-290.743 1559.26 -4.35311 1356.44 20.1034 1095.67C44.56 834.891 369.062 1214.88 550.36 943.696C760.584 629.253 304.576 802.64 -57.0305 731.418Z" stroke="#FFFFAC" stroke-opacity="0.4" stroke-width="3"/>
<path opacity="0.175" d="M-55.2867 745.307C-342.407 678.268 -399.224 982.485 -391.742 1142.97C-317.748 1564.49 -24.4544 1371.79 9.08813 1112.03C42.6307 852.262 353.674 1243.34 544.326 978.653C765.395 671.739 303.614 829.105 -55.2867 745.307Z" stroke="#FFFFAC" stroke-opacity="0.4" stroke-width="3"/>
<path opacity="0.13375" d="M-54.0286 759.248C-338.635 682.229 -406.034 984.278 -404.158 1144.93C-344.919 1568.77 -45.0791 1386.43 -2.49133 1127.99C40.0965 869.556 337.301 1271.25 537.075 1013.38C768.72 714.366 301.729 855.521 -54.0286 759.248Z" stroke="#FFFFAC" stroke-opacity="0.4" stroke-width="3"/>
<path opacity="0.0925" d="M-53.2578 773.224C-335.003 686.32 -412.902 985.833 -416.634 1146.45C-372.223 1572.1 -66.202 1400.33 -14.6209 1143.54C36.9602 886.75 319.965 1298.57 528.617 1047.83C770.556 757.083 298.923 881.854 -53.2578 773.224Z" stroke="#FFFFAC" stroke-opacity="0.4" stroke-width="3"/>
<path opacity="0.05125" d="M-52.9753 787.219C-331.516 690.535 -419.82 987.147 -429.155 1147.54C-399.627 1574.48 -87.7973 1413.49 -27.2858 1158.66C33.2258 903.824 301.686 1325.27 518.961 1081.96C770.9 799.839 295.2 908.074 -52.9753 787.219Z" stroke="#FFFFAC" stroke-opacity="0.4" stroke-width="3"/>
<path opacity="0.01" d="M-53.1814 801.215C-328.178 694.869 -426.78 988.218 -441.707 1148.19C-427.097 1575.9 -109.839 1425.89 -40.4706 1173.33C28.8977 920.758 282.486 1351.32 508.12 1115.74C769.752 842.58 290.564 934.148 -53.1814 801.215Z" stroke="#FFFFAC" stroke-opacity="0.4" stroke-width="3"/>
</svg>
