<svg width="870" height="1080" viewBox="0 0 870 1080" fill="none" xmlns="http://www.w3.org/2000/svg">
<path d="M-268.666 -154.114C-124.85 89.6676 260.73 468.225 652.532 32.1971" stroke="url(#paint0_linear_2059_1154)" stroke-width="1.31175"/>
<path d="M-261.52 -130.917C-108.36 107.105 291.609 470.426 666.209 19.5345" stroke="url(#paint1_linear_2059_1154)" stroke-width="1.31175"/>
<path d="M-254.371 -107.72C-92.0972 124.185 321.659 471.724 678.494 6.64562" stroke="url(#paint2_linear_2059_1154)" stroke-width="1.31175"/>
<path d="M-247.225 -84.5225C-76.0811 140.915 350.84 472.149 689.373 -6.41529" stroke="url(#paint3_linear_2059_1154)" stroke-width="1.31175"/>
<path d="M-240.079 -61.3252C-60.3219 157.307 379.122 471.738 698.843 -19.5937" stroke="url(#paint4_linear_2059_1154)" stroke-width="1.31175"/>
<path d="M-232.933 -38.1279C-44.8336 173.369 406.472 470.524 706.901 -32.8349" stroke="url(#paint5_linear_2059_1154)" stroke-width="1.31175"/>
<path d="M-225.786 -14.9307C-29.6277 189.114 432.861 468.546 713.546 -46.084" stroke="url(#paint6_linear_2059_1154)" stroke-width="1.31175"/>
<path d="M-218.64 8.2666C-14.7168 204.552 458.259 465.84 718.778 -59.2863" stroke="url(#paint7_linear_2059_1154)" stroke-width="1.31175"/>
<path d="M-211.494 31.4639C-0.113148 219.694 482.638 462.446 722.6 -72.3869" stroke="url(#paint8_linear_2059_1154)" stroke-width="1.31175"/>
<path d="M-204.347 54.6611C14.1731 234.554 505.974 458.404 725.017 -85.3314" stroke="url(#paint9_linear_2059_1154)" stroke-width="1.31175"/>
<path d="M-197.201 77.8584C28.1301 249.142 528.241 453.755 726.036 -98.0653" stroke="url(#paint10_linear_2059_1154)" stroke-width="1.31175"/>
<path d="M-190.055 101.056C41.7488 263.473 549.418 448.54 725.667 -110.535" stroke="url(#paint11_linear_2059_1154)" stroke-width="1.31175"/>
<path d="M-182.908 124.254C55.0187 277.561 569.482 442.804 723.92 -122.685" stroke="url(#paint12_linear_2059_1154)" stroke-width="1.31175"/>
<path d="M-175.762 147.451C67.9304 291.418 588.414 436.587 720.809 -134.464" stroke="url(#paint13_linear_2059_1154)" stroke-width="1.31175"/>
<path d="M-168.616 170.648C80.4759 305.057 606.197 429.936 716.35 -145.82" stroke="url(#paint14_linear_2059_1154)" stroke-width="1.31175"/>
<path d="M-161.47 193.846C92.6463 318.495 622.815 422.895 710.559 -156.699" stroke="url(#paint15_linear_2059_1154)" stroke-width="1.31175"/>
<path d="M-154.323 217.043C104.435 331.745 638.253 415.509 703.457 -167.052" stroke="url(#paint16_linear_2059_1154)" stroke-width="1.31175"/>
<path d="M-147.177 240.24C115.835 344.822 652.499 407.824 695.065 -176.826" stroke="url(#paint17_linear_2059_1154)" stroke-width="1.31175"/>
<path d="M-140.031 263.438C126.838 357.743 665.541 399.888 685.406 -185.974" stroke="url(#paint18_linear_2059_1154)" stroke-width="1.31175"/>
<path d="M-132.884 286.635C137.44 370.521 677.373 391.746 674.505 -194.445" stroke="url(#paint19_linear_2059_1154)" stroke-width="1.31175"/>
<path d="M-125.738 309.832C147.636 383.173 687.986 383.446 662.391 -202.193" stroke="url(#paint20_linear_2059_1154)" stroke-width="1.31175"/>
<path d="M-118.592 333.029C157.421 395.715 697.374 375.036 649.09 -209.171" stroke="url(#paint21_linear_2059_1154)" stroke-width="1.31175"/>
<path d="M-111.445 356.227C166.79 408.163 705.536 366.562 634.635 -215.333" stroke="url(#paint22_linear_2059_1154)" stroke-width="1.31175"/>
<path d="M-104.299 379.424C175.741 420.532 712.468 358.073 619.058 -220.635" stroke="url(#paint23_linear_2059_1154)" stroke-width="1.31175"/>
<path d="M-97.1528 402.621C184.271 432.84 718.173 349.616 602.393 -225.035" stroke="url(#paint24_linear_2059_1154)" stroke-width="1.31175"/>
<path d="M-90.0049 425.818C192.379 445.102 722.652 341.238 584.677 -228.491" stroke="url(#paint25_linear_2059_1154)" stroke-width="1.31175"/>
<path d="M-82.8584 449.016C200.061 457.336 725.908 332.988 565.945 -230.963" stroke="url(#paint26_linear_2059_1154)" stroke-width="1.31175"/>
<path d="M-75.7124 472.213C207.316 469.556 727.947 324.912 546.237 -232.412" stroke="url(#paint27_linear_2059_1154)" stroke-width="1.31175"/>
<path d="M-68.5659 495.41C214.147 481.781 728.777 317.058 525.593 -232.801" stroke="url(#paint28_linear_2059_1154)" stroke-width="1.31175"/>
<path d="M-61.4199 518.607C220.552 494.026 728.408 309.472 504.056 -232.095" stroke="url(#paint29_linear_2059_1154)" stroke-width="1.31175"/>
<path d="M-54.2734 541.805C226.533 506.308 726.851 302.201 481.668 -230.259" stroke="url(#paint30_linear_2059_1154)" stroke-width="1.31175"/>
<path d="M-47.127 565.002C232.092 518.644 724.119 295.29 458.475 -227.263" stroke="url(#paint31_linear_2059_1154)" stroke-width="1.31175"/>
<path d="M-39.981 588.199C237.231 531.049 720.227 288.785 434.52 -223.074" stroke="url(#paint32_linear_2059_1154)" stroke-width="1.31175"/>
<path d="M-32.8345 611.396C241.953 543.541 715.192 282.73 409.852 -217.666" stroke="url(#paint33_linear_2059_1154)" stroke-width="1.31175"/>
<path d="M-25.688 634.594C246.261 556.134 709.032 277.169 384.519 -211.011" stroke="url(#paint34_linear_2059_1154)" stroke-width="1.31175"/>
<path d="M-18.542 657.791C250.161 568.845 701.766 272.146 358.567 -203.083" stroke="url(#paint35_linear_2059_1154)" stroke-width="1.31175"/>
<path d="M-11.3955 680.988C253.656 581.69 693.417 267.703 332.05 -193.861" stroke="url(#paint36_linear_2059_1154)" stroke-width="1.31175"/>
<path d="M-4.24951 704.186C256.752 594.685 684.008 263.882 305.015 -183.323" stroke="url(#paint37_linear_2059_1154)" stroke-width="1.31175"/>
<path d="M2.89697 727.383C259.457 607.844 673.564 260.723 277.515 -171.45" stroke="url(#paint38_linear_2059_1154)" stroke-width="1.31175"/>
<path d="M10.043 750.581C261.775 621.184 662.111 258.267 249.602 -158.225" stroke="url(#paint39_linear_2059_1154)" stroke-width="1.31175"/>
<path d="M17.1895 773.778C263.714 634.718 649.677 256.55 221.329 -143.633" stroke="url(#paint40_linear_2059_1154)" stroke-width="1.31175"/>
<path d="M24.3354 796.976C265.283 648.46 636.292 255.612 192.749 -127.661" stroke="url(#paint41_linear_2059_1154)" stroke-width="1.31175"/>
<path d="M31.4834 820.173C266.491 662.426 621.988 255.487 163.917 -110.299" stroke="url(#paint42_linear_2059_1154)" stroke-width="1.31175"/>
<path d="M38.6299 843.37C267.344 676.63 606.794 256.212 134.884 -91.5368" stroke="url(#paint43_linear_2059_1154)" stroke-width="1.31175"/>
<path d="M45.7744 866.567C267.851 691.084 590.744 257.82 105.705 -71.3689" stroke="url(#paint44_linear_2059_1154)" stroke-width="1.31175"/>
<path d="M52.9224 889.765C268.027 705.802 573.878 260.344 76.4391 -49.79" stroke="url(#paint45_linear_2059_1154)" stroke-width="1.31175"/>
<path d="M60.0688 912.962C267.879 720.797 556.227 263.814 47.1363 -26.7981" stroke="url(#paint46_linear_2059_1154)" stroke-width="1.31175"/>
<path d="M67.2153 936.159C267.418 736.081 537.829 268.261 17.853 -2.39265" stroke="url(#paint47_linear_2059_1154)" stroke-width="1.31175"/>
<path d="M74.3613 959.356C266.655 751.666 518.723 273.712 -11.3566 23.4245" stroke="url(#paint48_linear_2059_1154)" stroke-width="1.31175"/>
<path d="M81.5078 982.554C265.604 767.563 498.949 280.195 -40.4368 50.6494" stroke="url(#paint49_linear_2059_1154)" stroke-width="1.31175"/>
<path d="M88.6538 1005.75C264.275 783.783 478.547 287.734 -69.334 79.276" stroke="url(#paint50_linear_2059_1154)" stroke-width="1.31175"/>
<path d="M95.8003 1028.95C262.683 800.338 457.559 296.353 -97.9931 109.296" stroke="url(#paint51_linear_2059_1154)" stroke-width="1.31175"/>
<path d="M102.947 1052.15C260.839 817.236 436.027 306.074 -126.361 140.699" stroke="url(#paint52_linear_2059_1154)" stroke-width="1.31175"/>
<path d="M110.093 1075.34C258.758 834.488 413.993 316.917 -154.384 173.473" stroke="url(#paint53_linear_2059_1154)" stroke-width="1.31175"/>
<path d="M117.239 1098.54C256.453 852.102 391.503 328.901 -182.009 207.604" stroke="url(#paint54_linear_2059_1154)" stroke-width="1.31175"/>
<path d="M124.385 1121.74C253.939 870.086 368.599 342.042 -209.184 243.075" stroke="url(#paint55_linear_2059_1154)" stroke-width="1.31175"/>
<path d="M131.532 1144.93C251.23 888.449 345.329 356.356 -235.857 279.867" stroke="url(#paint56_linear_2059_1154)" stroke-width="1.31175"/>
<path d="M138.678 1168.13C248.341 907.198 321.737 371.856 -261.978 317.961" stroke="url(#paint57_linear_2059_1154)" stroke-width="1.31175"/>
<path d="M145.824 1191.33C245.287 926.339 297.87 388.554 -287.496 357.333" stroke="url(#paint58_linear_2059_1154)" stroke-width="1.31175"/>
<path d="M152.971 1214.53C242.083 945.879 273.774 406.46 -312.362 397.96" stroke="url(#paint59_linear_2059_1154)" stroke-width="1.31175"/>
<path d="M160.117 1237.72C238.745 965.823 249.496 425.58 -336.529 439.814" stroke="url(#paint60_linear_2059_1154)" stroke-width="1.31175"/>
<path d="M167.263 1260.92C235.29 986.176 225.084 445.923 -359.948 482.869" stroke="url(#paint61_linear_2059_1154)" stroke-width="1.31175"/>
<path d="M174.41 1284.12C231.732 1006.94 200.586 467.491 -382.575 527.095" stroke="url(#paint62_linear_2059_1154)" stroke-width="1.31175"/>
<path d="M181.556 1307.32C228.087 1028.13 176.047 490.287 -404.364 572.458" stroke="url(#paint63_linear_2059_1154)" stroke-width="1.31175"/>
<path d="M188.702 1330.51C224.373 1049.73 151.517 514.313 -425.271 618.928" stroke="url(#paint64_linear_2059_1154)" stroke-width="1.31175"/>
<path d="M195.85 1353.71C220.606 1071.75 127.044 539.566 -445.253 666.467" stroke="url(#paint65_linear_2059_1154)" stroke-width="1.31175"/>
<path d="M202.997 1376.91C216.801 1094.2 102.674 566.043 -464.273 715.04" stroke="url(#paint66_linear_2059_1154)" stroke-width="1.31175"/>
<path d="M210.143 1400.1C212.975 1117.08 78.4537 593.74 -482.289 764.609" stroke="url(#paint67_linear_2059_1154)" stroke-width="1.31175"/>
<path d="M217.289 1423.3C209.145 1140.38 54.4322 622.651 -499.263 815.134" stroke="url(#paint68_linear_2059_1154)" stroke-width="1.31175"/>
<path d="M224.435 1446.5C205.326 1164.1 30.6551 652.765 -515.16 866.573" stroke="url(#paint69_linear_2059_1154)" stroke-width="1.31175"/>
<path d="M231.582 1469.7C201.537 1188.26 7.16991 684.074 -529.945 918.885" stroke="url(#paint70_linear_2059_1154)" stroke-width="1.31175"/>
<path d="M238.728 1492.89C197.793 1212.83 -15.9777 716.563 -543.583 972.025" stroke="url(#paint71_linear_2059_1154)" stroke-width="1.31175"/>
<path d="M245.874 1516.09C194.11 1237.82 -38.7426 750.221 -556.046 1025.95" stroke="url(#paint72_linear_2059_1154)" stroke-width="1.31175"/>
<path d="M253.021 1539.29C190.506 1263.24 -61.0791 785.03 -567.302 1080.61" stroke="url(#paint73_linear_2059_1154)" stroke-width="1.31175"/>
<path d="M260.167 1562.49C186.995 1289.07 -82.9435 820.974 -577.324 1135.96" stroke="url(#paint74_linear_2059_1154)" stroke-width="1.31175"/>
<path d="M267.313 1585.68C183.594 1315.31 -104.291 858.033 -586.087 1191.95" stroke="url(#paint75_linear_2059_1154)" stroke-width="1.31175"/>
<path d="M274.459 1608.88C180.32 1341.95 -125.08 896.187 -593.566 1248.54" stroke="url(#paint76_linear_2059_1154)" stroke-width="1.31175"/>
<path d="M281.605 1632.08C177.187 1369 -145.269 935.412 -599.739 1305.66" stroke="url(#paint77_linear_2059_1154)" stroke-width="1.31175"/>
<defs>
<linearGradient id="paint0_linear_2059_1154" x1="-296.306" y1="-17.4511" x2="624.892" y2="168.86" gradientUnits="userSpaceOnUse">
<stop stop-color="#5F2F14"/>
<stop offset="1" stop-color="#D2AB94"/>
</linearGradient>
<linearGradient id="paint1_linear_2059_1154" x1="-283.84" y1="6.71514" x2="643.889" y2="157.167" gradientUnits="userSpaceOnUse">
<stop stop-color="#5F2F14"/>
<stop offset="1" stop-color="#D2AB94"/>
</linearGradient>
<linearGradient id="paint2_linear_2059_1154" x1="-271.338" y1="30.6744" x2="661.527" y2="145.04" gradientUnits="userSpaceOnUse">
<stop stop-color="#5F2F14"/>
<stop offset="1" stop-color="#D2AB94"/>
</linearGradient>
<linearGradient id="paint3_linear_2059_1154" x1="-258.813" y1="54.4254" x2="677.785" y2="132.533" gradientUnits="userSpaceOnUse">
<stop stop-color="#5F2F14"/>
<stop offset="1" stop-color="#D2AB94"/>
</linearGradient>
<linearGradient id="paint4_linear_2059_1154" x1="-246.27" y1="77.9675" x2="692.652" y2="119.699" gradientUnits="userSpaceOnUse">
<stop stop-color="#5F2F14"/>
<stop offset="1" stop-color="#D2AB94"/>
</linearGradient>
<linearGradient id="paint5_linear_2059_1154" x1="-233.718" y1="101.3" x2="706.116" y2="106.593" gradientUnits="userSpaceOnUse">
<stop stop-color="#5F2F14"/>
<stop offset="1" stop-color="#D2AB94"/>
</linearGradient>
<linearGradient id="paint6_linear_2059_1154" x1="-221.164" y1="124.423" x2="718.168" y2="93.2696" gradientUnits="userSpaceOnUse">
<stop stop-color="#5F2F14"/>
<stop offset="1" stop-color="#D2AB94"/>
</linearGradient>
<linearGradient id="paint7_linear_2059_1154" x1="-208.618" y1="147.336" x2="728.8" y2="79.7833" gradientUnits="userSpaceOnUse">
<stop stop-color="#5F2F14"/>
<stop offset="1" stop-color="#D2AB94"/>
</linearGradient>
<linearGradient id="paint8_linear_2059_1154" x1="-196.087" y1="170.04" x2="738.007" y2="66.1894" gradientUnits="userSpaceOnUse">
<stop stop-color="#5F2F14"/>
<stop offset="1" stop-color="#D2AB94"/>
</linearGradient>
<linearGradient id="paint9_linear_2059_1154" x1="-183.579" y1="192.536" x2="745.786" y2="52.5434" gradientUnits="userSpaceOnUse">
<stop stop-color="#5F2F14"/>
<stop offset="1" stop-color="#D2AB94"/>
</linearGradient>
<linearGradient id="paint10_linear_2059_1154" x1="-171.102" y1="214.824" x2="752.135" y2="38.9005" gradientUnits="userSpaceOnUse">
<stop stop-color="#5F2F14"/>
<stop offset="1" stop-color="#D2AB94"/>
</linearGradient>
<linearGradient id="paint11_linear_2059_1154" x1="-158.664" y1="236.906" x2="757.057" y2="25.3162" gradientUnits="userSpaceOnUse">
<stop stop-color="#5F2F14"/>
<stop offset="1" stop-color="#D2AB94"/>
</linearGradient>
<linearGradient id="paint12_linear_2059_1154" x1="-146.274" y1="258.785" x2="760.554" y2="11.8468" gradientUnits="userSpaceOnUse">
<stop stop-color="#5F2F14"/>
<stop offset="1" stop-color="#D2AB94"/>
</linearGradient>
<linearGradient id="paint13_linear_2059_1154" x1="-133.939" y1="280.461" x2="762.632" y2="-1.45453" gradientUnits="userSpaceOnUse">
<stop stop-color="#5F2F14"/>
<stop offset="1" stop-color="#D2AB94"/>
</linearGradient>
<linearGradient id="paint14_linear_2059_1154" x1="-121.666" y1="301.936" x2="763.299" y2="-14.5319" gradientUnits="userSpaceOnUse">
<stop stop-color="#5F2F14"/>
<stop offset="1" stop-color="#D2AB94"/>
</linearGradient>
<linearGradient id="paint15_linear_2059_1154" x1="-109.465" y1="323.215" x2="762.564" y2="-27.3307" gradientUnits="userSpaceOnUse">
<stop stop-color="#5F2F14"/>
<stop offset="1" stop-color="#D2AB94"/>
</linearGradient>
<linearGradient id="paint16_linear_2059_1154" x1="-97.3413" y1="344.298" x2="760.439" y2="-39.7968" gradientUnits="userSpaceOnUse">
<stop stop-color="#5F2F14"/>
<stop offset="1" stop-color="#D2AB94"/>
</linearGradient>
<linearGradient id="paint17_linear_2059_1154" x1="-85.3033" y1="365.19" x2="756.939" y2="-51.8766" gradientUnits="userSpaceOnUse">
<stop stop-color="#5F2F14"/>
<stop offset="1" stop-color="#D2AB94"/>
</linearGradient>
<linearGradient id="paint18_linear_2059_1154" x1="-73.3589" y1="385.894" x2="752.078" y2="-63.5171" gradientUnits="userSpaceOnUse">
<stop stop-color="#5F2F14"/>
<stop offset="1" stop-color="#D2AB94"/>
</linearGradient>
<linearGradient id="paint19_linear_2059_1154" x1="-61.5142" y1="406.414" x2="745.876" y2="-74.6658" gradientUnits="userSpaceOnUse">
<stop stop-color="#5F2F14"/>
<stop offset="1" stop-color="#D2AB94"/>
</linearGradient>
<linearGradient id="paint20_linear_2059_1154" x1="-49.7769" y1="426.754" x2="738.351" y2="-85.271" gradientUnits="userSpaceOnUse">
<stop stop-color="#5F2F14"/>
<stop offset="1" stop-color="#D2AB94"/>
</linearGradient>
<linearGradient id="paint21_linear_2059_1154" x1="-38.1543" y1="446.918" x2="729.527" y2="-95.282" gradientUnits="userSpaceOnUse">
<stop stop-color="#5F2F14"/>
<stop offset="1" stop-color="#D2AB94"/>
</linearGradient>
<linearGradient id="paint22_linear_2059_1154" x1="-26.6523" y1="466.91" x2="719.428" y2="-104.649" gradientUnits="userSpaceOnUse">
<stop stop-color="#5F2F14"/>
<stop offset="1" stop-color="#D2AB94"/>
</linearGradient>
<linearGradient id="paint23_linear_2059_1154" x1="-15.2782" y1="486.737" x2="708.079" y2="-113.322" gradientUnits="userSpaceOnUse">
<stop stop-color="#5F2F14"/>
<stop offset="1" stop-color="#D2AB94"/>
</linearGradient>
<linearGradient id="paint24_linear_2059_1154" x1="-4.03762" y1="506.401" x2="695.508" y2="-121.255" gradientUnits="userSpaceOnUse">
<stop stop-color="#5F2F14"/>
<stop offset="1" stop-color="#D2AB94"/>
</linearGradient>
<linearGradient id="paint25_linear_2059_1154" x1="7.06442" y1="525.91" x2="681.746" y2="-128.399" gradientUnits="userSpaceOnUse">
<stop stop-color="#5F2F14"/>
<stop offset="1" stop-color="#D2AB94"/>
</linearGradient>
<linearGradient id="paint26_linear_2059_1154" x1="18.019" y1="545.268" x2="666.822" y2="-134.71" gradientUnits="userSpaceOnUse">
<stop stop-color="#5F2F14"/>
<stop offset="1" stop-color="#D2AB94"/>
</linearGradient>
<linearGradient id="paint27_linear_2059_1154" x1="28.8214" y1="564.481" x2="650.77" y2="-140.143" gradientUnits="userSpaceOnUse">
<stop stop-color="#5F2F14"/>
<stop offset="1" stop-color="#D2AB94"/>
</linearGradient>
<linearGradient id="paint28_linear_2059_1154" x1="39.467" y1="583.556" x2="633.626" y2="-144.655" gradientUnits="userSpaceOnUse">
<stop stop-color="#5F2F14"/>
<stop offset="1" stop-color="#D2AB94"/>
</linearGradient>
<linearGradient id="paint29_linear_2059_1154" x1="49.9496" y1="602.498" x2="615.425" y2="-148.204" gradientUnits="userSpaceOnUse">
<stop stop-color="#5F2F14"/>
<stop offset="1" stop-color="#D2AB94"/>
</linearGradient>
<linearGradient id="paint30_linear_2059_1154" x1="60.2652" y1="621.314" x2="596.207" y2="-150.75" gradientUnits="userSpaceOnUse">
<stop stop-color="#5F2F14"/>
<stop offset="1" stop-color="#D2AB94"/>
</linearGradient>
<linearGradient id="paint31_linear_2059_1154" x1="70.4086" y1="640.01" x2="576.01" y2="-152.255" gradientUnits="userSpaceOnUse">
<stop stop-color="#5F2F14"/>
<stop offset="1" stop-color="#D2AB94"/>
</linearGradient>
<linearGradient id="paint32_linear_2059_1154" x1="80.3746" y1="658.593" x2="554.876" y2="-152.68" gradientUnits="userSpaceOnUse">
<stop stop-color="#5F2F14"/>
<stop offset="1" stop-color="#D2AB94"/>
</linearGradient>
<linearGradient id="paint33_linear_2059_1154" x1="90.1602" y1="677.071" x2="532.847" y2="-151.992" gradientUnits="userSpaceOnUse">
<stop stop-color="#5F2F14"/>
<stop offset="1" stop-color="#D2AB94"/>
</linearGradient>
<linearGradient id="paint34_linear_2059_1154" x1="99.7607" y1="695.449" x2="509.967" y2="-150.155" gradientUnits="userSpaceOnUse">
<stop stop-color="#5F2F14"/>
<stop offset="1" stop-color="#D2AB94"/>
</linearGradient>
<linearGradient id="paint35_linear_2059_1154" x1="109.172" y1="713.737" x2="486.281" y2="-147.138" gradientUnits="userSpaceOnUse">
<stop stop-color="#5F2F14"/>
<stop offset="1" stop-color="#D2AB94"/>
</linearGradient>
<linearGradient id="paint36_linear_2059_1154" x1="118.392" y1="731.94" x2="461.837" y2="-142.91" gradientUnits="userSpaceOnUse">
<stop stop-color="#5F2F14"/>
<stop offset="1" stop-color="#D2AB94"/>
</linearGradient>
<linearGradient id="paint37_linear_2059_1154" x1="127.416" y1="750.066" x2="436.68" y2="-137.443" gradientUnits="userSpaceOnUse">
<stop stop-color="#5F2F14"/>
<stop offset="1" stop-color="#D2AB94"/>
</linearGradient>
<linearGradient id="paint38_linear_2059_1154" x1="136.242" y1="768.123" x2="410.86" y2="-130.71" gradientUnits="userSpaceOnUse">
<stop stop-color="#5F2F14"/>
<stop offset="1" stop-color="#D2AB94"/>
</linearGradient>
<linearGradient id="paint39_linear_2059_1154" x1="144.868" y1="786.121" x2="384.427" y2="-122.685" gradientUnits="userSpaceOnUse">
<stop stop-color="#5F2F14"/>
<stop offset="1" stop-color="#D2AB94"/>
</linearGradient>
<linearGradient id="paint40_linear_2059_1154" x1="153.291" y1="804.063" x2="357.43" y2="-113.348" gradientUnits="userSpaceOnUse">
<stop stop-color="#5F2F14"/>
<stop offset="1" stop-color="#D2AB94"/>
</linearGradient>
<linearGradient id="paint41_linear_2059_1154" x1="161.509" y1="821.96" x2="329.922" y2="-102.676" gradientUnits="userSpaceOnUse">
<stop stop-color="#5F2F14"/>
<stop offset="1" stop-color="#D2AB94"/>
</linearGradient>
<linearGradient id="paint42_linear_2059_1154" x1="169.522" y1="839.82" x2="301.956" y2="-90.6518" gradientUnits="userSpaceOnUse">
<stop stop-color="#5F2F14"/>
<stop offset="1" stop-color="#D2AB94"/>
</linearGradient>
<linearGradient id="paint43_linear_2059_1154" x1="177.327" y1="857.65" x2="273.581" y2="-77.2571" gradientUnits="userSpaceOnUse">
<stop stop-color="#5F2F14"/>
<stop offset="1" stop-color="#D2AB94"/>
</linearGradient>
<linearGradient id="paint44_linear_2059_1154" x1="184.921" y1="875.458" x2="244.851" y2="-62.478" gradientUnits="userSpaceOnUse">
<stop stop-color="#5F2F14"/>
<stop offset="1" stop-color="#D2AB94"/>
</linearGradient>
<linearGradient id="paint45_linear_2059_1154" x1="192.309" y1="893.253" x2="215.826" y2="-46.3012" gradientUnits="userSpaceOnUse">
<stop stop-color="#5F2F14"/>
<stop offset="1" stop-color="#D2AB94"/>
</linearGradient>
<linearGradient id="paint46_linear_2059_1154" x1="199.486" y1="911.043" x2="186.553" y2="-28.7167" gradientUnits="userSpaceOnUse">
<stop stop-color="#5F2F14"/>
<stop offset="1" stop-color="#D2AB94"/>
</linearGradient>
<linearGradient id="paint47_linear_2059_1154" x1="206.453" y1="928.836" x2="157.091" y2="-9.71573" gradientUnits="userSpaceOnUse">
<stop stop-color="#5F2F14"/>
<stop offset="1" stop-color="#D2AB94"/>
</linearGradient>
<linearGradient id="paint48_linear_2059_1154" x1="213.21" y1="946.64" x2="127.492" y2="10.708" gradientUnits="userSpaceOnUse">
<stop stop-color="#5F2F14"/>
<stop offset="1" stop-color="#D2AB94"/>
</linearGradient>
<linearGradient id="paint49_linear_2059_1154" x1="219.759" y1="964.463" x2="97.8148" y2="32.5585" gradientUnits="userSpaceOnUse">
<stop stop-color="#5F2F14"/>
<stop offset="1" stop-color="#D2AB94"/>
</linearGradient>
<linearGradient id="paint50_linear_2059_1154" x1="226.1" y1="982.313" x2="68.1121" y2="55.8379" gradientUnits="userSpaceOnUse">
<stop stop-color="#5F2F14"/>
<stop offset="1" stop-color="#D2AB94"/>
</linearGradient>
<linearGradient id="paint51_linear_2059_1154" x1="232.234" y1="1000.2" x2="38.4408" y2="80.546" gradientUnits="userSpaceOnUse">
<stop stop-color="#5F2F14"/>
<stop offset="1" stop-color="#D2AB94"/>
</linearGradient>
<linearGradient id="paint52_linear_2059_1154" x1="238.163" y1="1018.13" x2="8.8558" y2="106.681" gradientUnits="userSpaceOnUse">
<stop stop-color="#5F2F14"/>
<stop offset="1" stop-color="#D2AB94"/>
</linearGradient>
<linearGradient id="paint53_linear_2059_1154" x1="243.889" y1="1036.11" x2="-20.5882" y2="134.237" gradientUnits="userSpaceOnUse">
<stop stop-color="#5F2F14"/>
<stop offset="1" stop-color="#D2AB94"/>
</linearGradient>
<linearGradient id="paint54_linear_2059_1154" x1="249.413" y1="1054.15" x2="-49.8352" y2="163.21" gradientUnits="userSpaceOnUse">
<stop stop-color="#5F2F14"/>
<stop offset="1" stop-color="#D2AB94"/>
</linearGradient>
<linearGradient id="paint55_linear_2059_1154" x1="254.738" y1="1072.25" x2="-78.8313" y2="193.589" gradientUnits="userSpaceOnUse">
<stop stop-color="#5F2F14"/>
<stop offset="1" stop-color="#D2AB94"/>
</linearGradient>
<linearGradient id="paint56_linear_2059_1154" x1="259.868" y1="1090.43" x2="-107.521" y2="225.364" gradientUnits="userSpaceOnUse">
<stop stop-color="#5F2F14"/>
<stop offset="1" stop-color="#D2AB94"/>
</linearGradient>
<linearGradient id="paint57_linear_2059_1154" x1="264.804" y1="1108.69" x2="-135.852" y2="258.522" gradientUnits="userSpaceOnUse">
<stop stop-color="#5F2F14"/>
<stop offset="1" stop-color="#D2AB94"/>
</linearGradient>
<linearGradient id="paint58_linear_2059_1154" x1="269.551" y1="1127.04" x2="-163.77" y2="293.048" gradientUnits="userSpaceOnUse">
<stop stop-color="#5F2F14"/>
<stop offset="1" stop-color="#D2AB94"/>
</linearGradient>
<linearGradient id="paint59_linear_2059_1154" x1="274.112" y1="1145.49" x2="-191.222" y2="328.926" gradientUnits="userSpaceOnUse">
<stop stop-color="#5F2F14"/>
<stop offset="1" stop-color="#D2AB94"/>
</linearGradient>
<linearGradient id="paint60_linear_2059_1154" x1="278.49" y1="1164.04" x2="-218.156" y2="366.135" gradientUnits="userSpaceOnUse">
<stop stop-color="#5F2F14"/>
<stop offset="1" stop-color="#D2AB94"/>
</linearGradient>
<linearGradient id="paint61_linear_2059_1154" x1="282.69" y1="1182.71" x2="-244.521" y2="404.656" gradientUnits="userSpaceOnUse">
<stop stop-color="#5F2F14"/>
<stop offset="1" stop-color="#D2AB94"/>
</linearGradient>
<linearGradient id="paint62_linear_2059_1154" x1="286.717" y1="1201.49" x2="-270.267" y2="444.464" gradientUnits="userSpaceOnUse">
<stop stop-color="#5F2F14"/>
<stop offset="1" stop-color="#D2AB94"/>
</linearGradient>
<linearGradient id="paint63_linear_2059_1154" x1="290.575" y1="1220.39" x2="-295.345" y2="485.535" gradientUnits="userSpaceOnUse">
<stop stop-color="#5F2F14"/>
<stop offset="1" stop-color="#D2AB94"/>
</linearGradient>
<linearGradient id="paint64_linear_2059_1154" x1="294.269" y1="1239.43" x2="-319.704" y2="527.842" gradientUnits="userSpaceOnUse">
<stop stop-color="#5F2F14"/>
<stop offset="1" stop-color="#D2AB94"/>
</linearGradient>
<linearGradient id="paint65_linear_2059_1154" x1="297.805" y1="1258.6" x2="-343.298" y2="571.357" gradientUnits="userSpaceOnUse">
<stop stop-color="#5F2F14"/>
<stop offset="1" stop-color="#D2AB94"/>
</linearGradient>
<linearGradient id="paint66_linear_2059_1154" x1="301.187" y1="1277.92" x2="-366.082" y2="616.048" gradientUnits="userSpaceOnUse">
<stop stop-color="#5F2F14"/>
<stop offset="1" stop-color="#D2AB94"/>
</linearGradient>
<linearGradient id="paint67_linear_2059_1154" x1="304.421" y1="1297.38" x2="-388.011" y2="661.884" gradientUnits="userSpaceOnUse">
<stop stop-color="#5F2F14"/>
<stop offset="1" stop-color="#D2AB94"/>
</linearGradient>
<linearGradient id="paint68_linear_2059_1154" x1="307.513" y1="1317" x2="-409.039" y2="708.831" gradientUnits="userSpaceOnUse">
<stop stop-color="#5F2F14"/>
<stop offset="1" stop-color="#D2AB94"/>
</linearGradient>
<linearGradient id="paint69_linear_2059_1154" x1="310.469" y1="1336.78" x2="-429.126" y2="756.852" gradientUnits="userSpaceOnUse">
<stop stop-color="#5F2F14"/>
<stop offset="1" stop-color="#D2AB94"/>
</linearGradient>
<linearGradient id="paint70_linear_2059_1154" x1="313.297" y1="1356.72" x2="-448.229" y2="805.91" gradientUnits="userSpaceOnUse">
<stop stop-color="#5F2F14"/>
<stop offset="1" stop-color="#D2AB94"/>
</linearGradient>
<linearGradient id="paint71_linear_2059_1154" x1="316.001" y1="1376.84" x2="-466.31" y2="855.966" gradientUnits="userSpaceOnUse">
<stop stop-color="#5F2F14"/>
<stop offset="1" stop-color="#D2AB94"/>
</linearGradient>
<linearGradient id="paint72_linear_2059_1154" x1="318.589" y1="1397.12" x2="-483.331" y2="906.981" gradientUnits="userSpaceOnUse">
<stop stop-color="#5F2F14"/>
<stop offset="1" stop-color="#D2AB94"/>
</linearGradient>
<linearGradient id="paint73_linear_2059_1154" x1="321.067" y1="1417.59" x2="-499.255" y2="958.911" gradientUnits="userSpaceOnUse">
<stop stop-color="#5F2F14"/>
<stop offset="1" stop-color="#D2AB94"/>
</linearGradient>
<linearGradient id="paint74_linear_2059_1154" x1="323.443" y1="1438.24" x2="-514.047" y2="1011.71" gradientUnits="userSpaceOnUse">
<stop stop-color="#5F2F14"/>
<stop offset="1" stop-color="#D2AB94"/>
</linearGradient>
<linearGradient id="paint75_linear_2059_1154" x1="325.725" y1="1459.08" x2="-527.675" y2="1065.35" gradientUnits="userSpaceOnUse">
<stop stop-color="#5F2F14"/>
<stop offset="1" stop-color="#D2AB94"/>
</linearGradient>
<linearGradient id="paint76_linear_2059_1154" x1="327.918" y1="1480.11" x2="-540.107" y2="1119.76" gradientUnits="userSpaceOnUse">
<stop stop-color="#5F2F14"/>
<stop offset="1" stop-color="#D2AB94"/>
</linearGradient>
<linearGradient id="paint77_linear_2059_1154" x1="330.031" y1="1501.33" x2="-551.314" y2="1174.91" gradientUnits="userSpaceOnUse">
<stop stop-color="#5F2F14"/>
<stop offset="1" stop-color="#D2AB94"/>
</linearGradient>
</defs>
</svg>
